<?xml version="1.0" encoding="UTF-8"?>
<!DOCTYPE svg PUBLIC "-//W3C//DTD SVG 1.1 Tiny//EN" "http://www.w3.org/Graphics/SVG/1.1/DTD/svg11-tiny.dtd">
<svg xmlns="http://www.w3.org/2000/svg" baseProfile="tiny" height="128" version="1.1" viewBox="0 0 33.866666 33.866668" width="128">
<metadata/>
<g style="display:inline">
<path d="M 108.89844 7.9667969 C 106.90124 7.9667969 104.92016 8.3723704 103.08008 8.9746094 C 101.70134 9.4258589 92.21592 8.9746094 90.417969 8.9746094 L 63.726562 8.9746094 L 41.824219 8.9746094 C 39.637225 8.9746094 33.354023 8.4988515 31.900391 8.9746094 C 31.127882 9.2274447 31.079758 9.7797949 30.53125 10.318359 C 30.387855 10.459162 29.713257 10.55443 29.505859 10.65625 C 28.74292 11.030805 28.251526 12.073989 27.451172 12.335938 C 26.182287 12.751231 26.251406 12.561678 25.056641 13.34375 C 23.928775 14.082027 17.048919 12.941021 15.816406 12.335938 C 15.126121 11.997054 8.9908571 12.335938 8.6308594 12.335938 C 8.1207834 12.335938 5.1145573 11.937461 4.8652344 12.671875 C 4.6297169 13.365616 4.9610854 19.575683 5.2089844 20.0625 C 6.0760677 21.765225 6.3339311 23.377417 6.9199219 25.103516 C 7.1579565 25.804666 7.7072797 26.082051 7.9453125 26.783203 C 8.2475386 27.673449 7.9611085 29.44232 7.6035156 30.144531 C 7.452977 30.440147 7.459629 36.103508 7.6035156 36.527344 C 7.7055326 36.827873 8.1428218 36.915875 8.2871094 37.199219 C 8.6738631 37.958701 9.3585782 39.011852 9.65625 39.888672 C 9.9138966 40.647601 8.9352312 42.986275 8.6308594 43.583984 C 8.3089948 44.216035 8.8613387 45.256638 8.6308594 45.935547 C 8.436603 46.507741 8.173452 47.055226 7.9453125 47.615234 C 8.6410426 48.903422 6.8071449 48.616518 6.5761719 49.296875 C 6.3418563 49.987077 6.8510645 50.973667 6.5761719 51.648438 C 6.1776948 52.626574 5.810487 53.315941 5.5507812 54.335938 C 5.3136311 55.267333 5.319308 68.320656 5.5507812 69.457031 C 5.8795397 71.071022 6.6502688 72.571572 6.9199219 74.160156 C 6.9949269 74.602066 6.7756309 75.078895 6.9199219 75.503906 C 7.1002847 76.035179 7.7649527 76.316387 7.9453125 76.847656 C 8.1852634 77.554451 8.496877 80.617751 8.6308594 80.880859 C 8.7751466 81.164211 9.170164 81.269372 9.3144531 81.552734 C 9.478084 81.87407 9.6594361 84.56365 9.65625 84.576172 C 9.3589902 85.743649 9.5500991 86.778686 9.3144531 87.935547 C 9.1715378 88.637159 8.7679319 89.078839 8.6308594 89.617188 C 8.5478574 89.943171 8.7138614 90.299031 8.6308594 90.625 C 8.488152 91.185462 7.6102523 91.791367 7.2617188 92.304688 C 6.2653102 93.772201 7.4138041 92.193641 6.9199219 93.648438 C 6.7488945 94.152225 6.1982463 94.542 5.8925781 94.992188 C 5.8218221 95.096426 5.7652307 101.67371 5.8925781 102.04883 C 6.3690167 103.45222 7.0483748 104.96248 7.6035156 106.41602 C 7.7909575 106.90677 7.4732164 107.5859 7.6035156 108.09766 C 7.9180441 109.33297 8.3286498 111.41096 8.9726562 112.46484 C 9.314866 113.02485 9.657791 113.02465 10 113.47266 C 11.727649 115.73442 13.537296 117.84314 15.816406 119.52148 C 16.250045 119.84078 23.370761 119.40548 24.714844 119.18555 C 26.711693 118.85877 29.233996 119.18555 31.216797 119.18555 C 35.842084 119.18555 40.385603 119.25315 44.904297 118.51367 C 45.552573 118.40762 50.133931 118.28248 50.722656 118.51367 C 52.158128 119.07745 53.588016 119.71622 55.169922 119.85742 C 56.170314 119.94672 62.657643 120.2037 64.068359 119.85742 C 65.373793 119.53699 66.550238 119.10132 67.832031 118.84961 C 69.338279 118.55382 70.908401 118.62709 72.28125 118.17773 C 73.933686 117.63691 73.117938 113.17451 73.650391 112.12891 C 73.926032 111.58759 76.799032 108.39961 77.414062 108.09766 C 78.256912 107.68388 77.10588 109.07306 78.441406 107.76172 C 79.353966 106.86571 78.097928 107.19996 79.466797 106.75195 C 80.160087 106.52503 82.156988 105.38397 82.890625 105.74414 C 83.714195 106.14849 84.541882 106.87648 85.285156 107.42383 C 85.869305 107.85398 87.045762 108.22612 87.679688 108.43359 C 88.873964 108.82448 90.848523 110.5823 92.128906 111.12109 C 92.552047 111.29915 93.082042 111.25279 93.498047 111.45703 C 94.179809 111.79171 94.85147 112.90784 95.550781 113.13672 C 98.181196 113.99763 102.95115 115.52021 105.81836 114.81641 C 106.81422 114.57195 106.79873 114.0477 107.5293 113.80859 C 107.63475 113.77419 108.79302 113.50713 108.89844 113.47266 C 109.79042 113.18073 109.96679 113.7239 110.60938 114.14453 C 111.3042 114.59937 114.55283 114.13853 115.05664 113.80859 C 116.15473 113.08981 115.55619 112.88862 115.74219 111.79297 C 115.80149 111.44359 115.99649 111.12876 116.08398 110.78516 C 116.50281 109.14027 115.53894 107.01368 116.08398 105.4082 C 116.31937 104.71479 116.12728 103.30655 116.42578 102.7207 C 116.57005 102.43739 116.93234 102.31241 117.11133 102.04883 C 117.64147 101.268 116.916 99.312408 117.11133 98.353516 C 117.28141 97.518618 117.593 96.793051 117.79492 96 C 118.0692 94.922729 117.79492 93.413309 117.79492 92.304688 L 117.79492 83.232422 C 117.79492 82.267886 117.89222 82.608925 118.13672 81.888672 C 118.3898 81.143251 118.38122 75.552096 118.13672 74.832031 C 117.84951 73.986003 117.0548 73.662427 116.76758 72.816406 C 116.48045 71.970627 116.81978 70.566876 116.42578 69.792969 C 116.11707 69.186751 115.76567 68.828641 115.40039 68.111328 C 114.80714 66.946345 114.77497 65.511368 114.03125 64.416016 C 113.85225 64.152431 113.49 64.027469 113.3457 63.744141 C 113.18152 63.421634 113.45523 62.723072 113.3457 62.400391 C 113.2945 62.250154 113.07602 62.20611 113.00391 62.064453 C 112.86535 61.792289 112.89381 56.621719 113.00391 56.351562 C 113.24924 55.749337 113.86516 55.324184 114.03125 54.671875 C 114.2217 53.923876 114.20391 52.989225 114.71484 52.320312 C 115.00522 51.940161 115.47374 51.707876 115.74219 51.3125 C 116.41067 50.327956 117.71006 47.192327 118.13672 45.935547 C 118.30782 45.431543 117.79452 45.599746 118.13672 44.927734 C 119.2509 42.73977 118.48042 45.597807 119.16406 43.583984 C 119.37991 42.948192 119.44663 42.158963 119.84766 41.568359 C 120.02665 41.304775 120.38892 41.179832 120.5332 40.896484 C 120.70869 40.551905 120.69955 39.897295 120.875 39.552734 C 121.4323 38.458338 122.61369 37.424813 122.92773 36.191406 C 123.82968 32.649024 122.38834 31.721619 121.55859 28.462891 C 121.28772 27.398986 121.55859 25.868892 121.55859 24.767578 C 121.55859 23.642536 122.07708 20.744701 121.55859 19.726562 C 121.48649 19.584892 121.25591 19.544293 121.2168 19.390625 C 120.98111 18.464859 121.65003 16.882053 121.2168 16.03125 C 121.07249 15.747925 120.63523 15.659908 120.5332 15.359375 C 120.31675 14.721772 120.17174 13.980132 119.84766 13.34375 C 119.59688 12.8513 118.87168 12.721972 118.47852 12.335938 C 115.58529 9.495167 113.13781 7.9667969 108.89844 7.9667969 z M 18.136719 19.322266 L 31.949219 24.916016 L 30 31.779297 L 21.101562 32.712891 L 13.220703 28.136719 L 18.136719 19.322266 z " style="fill:#c3875f;fill-opacity:1;stroke-width:5.34675" transform="scale(0.26458333)"/>
<path d="m 101.43555,10.154297 c -3.422776,0.0336 -7.03367,0.490989 -8.791019,1.160156 -1.616171,0.61541 -2.867643,1.991843 -4.46289,2.498047 -1.239855,0.393426 -2.989415,-0.460671 -4.199219,0 -1.312528,0.499788 -0.0016,0.375159 -0.789063,0.75 -0.536084,0.255163 -1.13207,0.03956 -1.574218,0.25 -1.536133,0.731169 -2.694529,2.217479 -4.462891,2.498047 -3.240684,0.514165 -7.972619,0.881049 -11.287109,0.25 -1.338067,-0.25476 -2.639338,-0.939097 -3.9375,-1.248047 -1.160833,-0.276263 -4.18223,-2.660792 -6.039063,-3.25 -3.686872,-1.169918 -17.720021,-2.222557 -21.52539,-1.498047 -2.460539,0.468466 -3.486944,2.284297 -5.511719,3.248047 -4.168183,1.983967 -13.825604,5.038966 -18.638672,2.748047 -0.215244,1.300499 -0.5423843,2.912148 -0.2617189,4.248047 0.3919949,1.865812 1.0743969,4.181011 1.8378909,5.998047 0.58766,1.39857 0.327175,3.488503 0.52539,4.998047 0.848153,6.459246 -1.351664,15.346729 0.261719,21.490234 0.893104,3.400789 -1.474067,7.822354 -0.787109,11.746094 0.211453,1.207736 0.732586,1.643939 1.3125,2.748046 1.37552,2.618869 2.889211,10.9917 1.83789,13.994141 -0.666515,1.903484 -1.573762,3.619074 -2.363281,5.498047 -0.314559,0.74863 0.01847,1.583065 -0.261719,2.25 -1.240613,2.952529 -1.605886,5.431462 -3.099609,8.275391 -0.3440957,0.65512 -0.1515076,7.936209 0.1191406,8.966799 0.207481,0.79006 1.6384154,3.97385 2.1972654,4.50586 1.668945,1.06718 12.561903,-3.00586 16.533203,-3.00586 2.547117,0 5.54976,0.61263 7.875,1.49804 1.556933,0.59286 2.84816,1.73763 4.462891,2.25 3.154632,1.00103 6.604694,1.31449 9.712891,2.49805 3.561324,1.35609 6.927138,-1.77278 9.974609,-2.49805 0.805009,-0.19158 1.8509,-0.004 2.625,-0.25 0.81834,-0.25965 1.282373,-1.11101 2.099609,-1.5 0.749624,-0.35675 4.4574,-0.24809 6.03711,-1 0.751559,-0.35773 0.852271,-1.40349 1.576172,-1.74804 1.662701,-0.79142 2.789508,-2.4535 4.46289,-3.25 1.047047,-0.49837 2.372467,-0.5032 3.41211,-0.99805 1.040035,-0.49503 5.0235,-0.32167 6.037109,0 1.559679,0.49491 3.528934,1.80343 4.988281,2.49805 0.569571,0.2711 1.761502,-0.0952 2.361328,0 4.30695,0.68334 9.572911,3.12152 13.482421,1.63281 1.95068,-0.74279 6.03718,-1.31252 7.25586,-3.63281 1.2375,-2.35608 2.55434,-9.450622 1.57617,-12.244143 -0.51254,-1.463736 -0.85919,-3.106594 -1.05078,-4.748047 -0.13546,-1.16027 0.1258,-2.641496 -0.26172,-3.748047 -0.50052,-1.429402 -1.56499,-2.965683 -2.10156,-4.498047 -0.4798,-1.370283 -0.61752,-2.924868 -1.3125,-4.248047 -0.74121,-1.411207 -0.0272,-7.591756 -0.52344,-9.246093 -0.74673,-2.488018 -1.5535,-6.79032 -0.26367,-9.246094 3.67676,-6.112127 5.14726,-11.883957 8.00781,-18.552734 0.75671,-3.601772 0.0215,-8.973975 0.0215,-12.695313 0,-3.118555 0.68377,-9.7103 -1.3125,-12.244141 -0.69468,-0.881913 -3.48987,-0.635931 -4.35352,-0.988281 -0.40214,-0.164064 -0.67562,-0.535717 -1.05078,-0.75 -0.93125,-0.531905 -2.51157,-0.07136 -3.41211,-0.5 -1.17186,-0.55778 -3.2281,-0.835378 -5.50976,-0.898437 -0.47535,-0.01314 -0.96026,-0.01652 -1.44922,-0.01172 z m -81.520538,11.286975 5.271076,2.687245 4.136406,3.456076 -2.542634,3.264013 -6.923779,-0.962645 -3.204239,-2.724941 -0.0405,-3.941226 z" style="fill:#d69c75;fill-opacity:1;stroke:none;stroke-width:1.06851px;stroke-linecap:butt;stroke-linejoin:miter;stroke-opacity:1" transform="scale(0.26458333)"/>
<path d="m 9.1213316,16.451017 c 0.580988,-0.123412 1.3300624,-0.849299 1.9714294,-0.567384 0.09706,0.04266 0.309754,0.273353 0.375509,0.309483 0.253404,0.139229 1.698356,0.257901 2.018369,0.257901 0.394621,0 0.786112,0.0092 1.173469,-0.05159 0.400427,-0.06286 0.760949,-0.309482 1.17347,-0.309482 0.328743,0 0.693158,-0.134483 1.032653,-0.05159 0.370979,0.09059 0.678429,0.231311 1.032653,0.361062 0.07652,0.02803 0.209685,0.01204 0.281633,0.05159 0.546113,0.300058 1.055705,1.26509 0.844898,1.96005 -0.03865,0.127429 -0.154494,0.199831 -0.187756,0.309482 -0.0466,0.153621 -0.03229,0.448125 -0.140816,0.567383 -0.505369,0.555341 -1.765235,0.340491 -2.440816,0.464222 -0.147045,0.02694 -0.663066,0.673798 -0.938777,0.825285 -0.31413,0.172597 -1.721225,-0.111683 -2.487754,0.309481 -0.318795,0.17516 -0.47756,0.529712 -0.79796,0.670544 -0.81542,0.358422 -1.634396,0.737177 -2.3938774,1.237926 -0.2227009,0.146834 -0.2984965,0.590753 -0.516327,0.670544 -0.1619205,0.05931 -0.6195896,-0.273371 -0.7040817,-0.412642 -0.4955896,-0.816894 -1.0430231,-3.16559 -0.422449,-4.074841 0.09367,-0.137245 0.2820678,-0.207039 0.3755101,-0.361063 0.08895,-0.14662 0.2298402,-0.39664 0.2816329,-0.567382 0.028163,-0.09284 -0.028163,-0.216638 0,-0.309483 0.098927,-0.32613 0.4135373,-0.589584 0.5163265,-0.928445 0.028143,-0.09277 -0.032247,-0.296483 -0.046939,-0.361061 z" style="fill:#c3875f;fill-opacity:1;stroke:none;stroke-width:0.290304px;stroke-linecap:butt;stroke-linejoin:miter;stroke-opacity:1"/>
<path d="m 4.03607,27.960998 c 0.2716184,-0.32121 0.6793233,-0.362085 1.0314403,-0.538144 0.1390076,-0.0695 0.4914302,0.01138 0.6278332,0 0.3208869,-0.02674 0.5066707,-0.134536 0.8520591,-0.134536 0.4555213,0 0.8940819,-0.09693 1.3453568,-0.134535 0.287006,-0.02392 0.5866963,0 0.8744818,0 0.389605,0 1.0470718,-0.116642 1.3902018,0.112112 0.06156,0.04104 0.101275,0.108236 0.156959,0.156959 0.263165,0.230269 0.540815,0.472212 0.852059,0.627832 0.05373,0.02687 0.222748,0.08674 0.246649,0.134535 0.04881,0.09763 0.290245,0.50119 0.04485,0.582989 -0.376615,0.125539 -0.895772,0.03162 -1.278089,-0.04484 C 10.056659,28.698733 9.9506414,28.627443 9.8211038,28.611253 9.5732321,28.580268 9.3536123,28.56207 9.1260029,28.476715 9.0251721,28.438904 8.9067605,28.331718 8.8120865,28.274912 8.524541,28.102386 8.2415427,28.077882 7.915182,28.050686 c -0.2045784,-0.01704 -0.7207252,-0.05674 -0.919327,0 -0.1554954,0.04443 -0.3172714,0.12818 -0.470875,0.179382 -0.3474394,0.115814 -0.8832347,0.131117 -1.2556662,0.224227 -0.1027419,0.02569 -0.2155825,0.09572 -0.3139167,0.112112 -0.2536322,0.04227 -0.5319168,-0.02815 -0.7847912,0.02241 -0.085941,0.0172 -0.2325288,0.0944 -0.3139168,0.06727 -0.2924312,-0.09748 0.1180733,-0.572487 0.1793809,-0.6951 z" style="fill:#e2b08e;fill-opacity:1;stroke:none;stroke-width:0.264583px;stroke-linecap:butt;stroke-linejoin:miter;stroke-opacity:1"/>
<path d="m 22.86583,5.1648253 c -0.370527,-0.00565 -2.792324,0.4167637 -2.917354,0.7293382 -0.05643,0.1410663 -0.07974,0.4901285 -0.03171,0.6342073 0.117452,0.352357 0.526916,0.3171034 0.824469,0.3171034 0.53897,0 1.149595,-0.088509 1.68065,0 0.260905,0.043484 0.485172,0.1413093 0.761048,0.1585523 0.37159,0.02323 0.846764,-0.0877 1.204994,0.03171 0.172641,0.05755 0.260267,0.351009 0.443945,0.412235 0.188476,0.06282 0.321071,-0.0872 0.443945,0.158552 0.1373,0.274599 0.05406,0.335828 -0.06342,0.570786 -0.04868,0.09735 -0.03418,0.247229 -0.09513,0.348814 -0.150995,0.251659 -0.318495,0.505663 -0.475655,0.761049 -0.07106,0.115472 -0.131302,0.306452 -0.221973,0.412234 -0.08369,0.09764 -0.229999,0.1348683 -0.317103,0.2219733 -0.253848,0.2538482 -0.63306,0.5285672 -0.792759,0.8878902 -0.16093,0.362092 -0.03737,0.827858 0.03171,1.173283 0.04934,0.246707 1.051218,0.02923 1.204994,0.09513 0.08379,0.03591 0.204191,0.179446 0.253683,0.253683 0.5593,0.83895 0.54229,0.217559 1.236704,0.634208 0.235597,0.141358 0.381909,0.51081 0.729338,0.380524 0.473739,-0.177652 0.677945,-1.266226 0.951311,-1.648939 0.125873,-0.176222 0.58144,-0.391304 0.665917,-0.602497 0.0567,-0.141743 0.0113,-0.677214 0.06342,-0.729338 0.228992,-0.228992 1.234735,0.160521 1.585518,-0.190262 0.117745,-0.117745 -0.0015,-0.4211595 0.03171,-0.5707875 0.06355,-0.285958 0.194173,-0.614229 0.285393,-0.88789 0.04188,-0.125645 0.263436,0.131742 0.285393,0 0.10981,-0.658858 -0.04929,-1.441245 0.06342,-2.0611734 C 30.718128,6.5461054 30.830067,6.2335179 30.85684,6.1478453 30.86843,5.5681145 30.76554,5.3397082 30.349475,5.1014044 30.089697,4.7896702 29.708048,4.19683 29.303033,4.0232522 28.841088,3.8252756 27.640352,3.5647441 27.146728,3.6744382 c -0.206354,0.045857 -0.34921,0.2411572 -0.539076,0.3171037 -0.108833,0.043533 -0.24128,0.059286 -0.348814,0.095131 -0.216066,0.072022 -0.503969,-0.033408 -0.697628,0.063421 -0.249093,0.1245463 -0.326618,0.4877062 -0.570786,0.6342071 -0.160029,0.096018 -0.243777,0.06144 -0.412235,0.095131 -0.129724,0.025945 -0.258733,0.1179546 -0.380524,0.1585518 -0.293124,0.097708 -1.004673,0.2086319 -1.331835,0.1268415 z" style="fill:#e2b08e;fill-opacity:1;stroke:none;stroke-width:0.264583px;stroke-linecap:butt;stroke-linejoin:miter;stroke-opacity:1"/>
<path d="m 24.88617,26.107934 c -0.121949,-0.01133 -0.185078,0.113057 -0.282884,0.179584 -0.04332,0.02945 -0.139115,0.01214 -0.188589,0.02565 -0.160906,0.04377 -0.395447,0.238915 -0.528049,0.359175 -0.01301,0.01181 -0.258364,0.159707 -0.188589,0.230895 0.111332,0.113592 0.519548,-0.01862 0.697779,0.102621 0.08891,0.06048 0.105623,0.223215 0.188589,0.307868 0.08067,0.0823 0.220011,-0.0042 0.301743,0.05131 0.09392,0.06387 0.145047,0.208787 0.226306,0.230896 0.16061,0.0437 0.315369,-0.104401 0.471472,-0.05131 0.195607,0.06652 0.360948,0.153931 0.565766,0.153931 0.08702,0 0.337382,-0.06081 0.414898,-0.02565 0.104635,0.04744 0.117137,0.259258 0.188589,0.307864 0.07552,0.05138 -0.01719,-0.325971 -0.01885,-0.333522 -0.06409,-0.290624 -0.07844,-0.583396 -0.207445,-0.846628 -0.03768,-0.07689 -0.224767,0.257602 -0.339463,0.179589 -0.20086,-0.136617 -0.133625,-0.208536 -0.245164,-0.436144 -0.01989,-0.04058 -0.27036,0.0086 -0.301743,0 -0.06002,-0.01631 -0.115364,-0.09129 -0.16973,-0.128267 -0.03432,-0.02333 -0.09613,0.01626 -0.132012,0 -0.164518,-0.07461 -0.328168,-0.138575 -0.452613,-0.307864 z" style="fill:#c3875f;fill-opacity:1;stroke:none;stroke-width:0.367061px;stroke-linecap:butt;stroke-linejoin:miter;stroke-opacity:1"/>
<path d="m 28.168512,27.691627 c -0.01908,-0.149436 0.08814,-0.469268 0.202616,-0.581411 0.0651,-0.06377 0.207422,-0.110232 0.255633,-0.187632 0.133909,-0.214967 0.296455,-0.41146 0.393526,-0.642864 0.0089,-0.02107 0.178021,-0.142326 0.201104,-0.127947 0.04486,0.02794 0.06255,0.08521 0.09382,0.127817 0.17121,0.233258 -0.0014,0.247424 0.02663,0.491812 0.05703,0.498007 0.605036,0.42129 -0.02178,0.88137 -0.09513,0.06983 -0.213545,0.187627 -0.338306,0.208978 -0.248396,0.04252 -0.602288,-0.256399 -0.813244,-0.170127 z" style="fill:#c3875f;fill-opacity:1;stroke:none;stroke-width:0.264583px;stroke-linecap:butt;stroke-linejoin:miter;stroke-opacity:1"/>
<path d="m 27.277833,25.477488 c -0.03656,-0.05858 -0.04944,-0.130585 -0.07928,-0.190262 -0.209304,-0.418609 0.03581,-0.337054 0.269539,-0.570786 0.0293,-0.0293 0.164328,-0.06484 0.190262,0 0.06306,0.157653 0.08843,0.819893 -0.110987,0.9196 -0.08394,0.04197 -0.215591,-0.122587 -0.269537,-0.158552 z" style="fill:#c3875f;fill-opacity:1;stroke:none;stroke-width:0.264583px;stroke-linecap:butt;stroke-linejoin:miter;stroke-opacity:1"/>
<path d="M 19.515625 20.138672 C 19.386252 20.208147 19.322075 20.370238 19.208984 20.466797 C 18.98925 20.654416 18.639716 20.876151 18.388672 21.011719 C 18.197152 21.115138 17.896235 21.116012 17.695312 21.224609 C 17.427828 21.369176 17.353351 21.453014 17.087891 21.546875 C 17.02461 21.56925 16.94829 21.515051 16.888672 21.546875 C 16.634472 21.68253 16.484204 22.169717 16.216797 22.263672 C 16.151955 22.2865 16.076564 22.240844 16.011719 22.263672 C 15.887399 22.307348 15.421457 22.790938 15.355469 22.837891 C 15.534282 23.446702 15.380645 24.12643 15.560547 24.685547 C 15.621397 24.874663 15.500154 25.131004 15.560547 25.320312 C 15.620456 25.508095 15.817343 25.595584 15.867188 25.753906 C 15.959291 26.046423 15.899263 26.437716 15.96875 26.734375 C 16.016055 26.936342 16.284182 27.198585 16.376953 27.388672 C 16.430883 27.499185 16.376953 27.763168 16.376953 27.882812 C 16.376953 28.849594 16.250787 29.949029 17.089844 30.5625 C 17.146106 30.60364 17.303864 30.539218 17.369141 30.5625 C 18.467978 30.95505 19.652921 30.890625 20.818359 30.890625 C 21.119331 30.890625 21.541804 30.813439 21.832031 30.890625 C 22.240195 30.999192 22.696654 31.197407 23.058594 31.326172 C 23.325209 31.421027 23.695019 31.337805 23.96875 31.435547 C 24.379215 31.582041 24.765742 31.797725 25.199219 31.875 C 25.548938 31.937343 25.969602 31.875 26.326172 31.875 C 26.585689 31.875 27.21631 32.001372 27.453125 31.875 C 27.539476 31.828935 27.580965 31.718076 27.658203 31.65625 C 27.983201 31.396105 27.756872 31.713031 28.169922 31.4375 C 28.809094 31.011137 29.582838 30.374363 30.013672 29.6875 C 30.317519 29.203087 30.593851 28.535495 30.929688 28.058594 C 31.076654 27.849894 31.739624 27.067151 31.816406 26.896484 C 31.950476 26.598479 31.877188 25.518297 31.714844 25.230469 C 31.665047 25.14219 31.559439 25.10008 31.509766 25.011719 C 31.334961 24.700773 31.442773 24.326716 31.304688 24.037109 C 30.669088 22.704027 28.187418 22.738281 27.033203 22.738281 C 26.607885 22.738281 25.060185 22.874015 24.765625 22.738281 C 23.02349 21.935504 22.282364 20.138672 20.228516 20.138672 C 20.166248 20.138672 19.572269 20.108247 19.515625 20.138672 z M 20.226562 22.556641 C 20.293643 22.55043 20.35225 22.56391 20.392578 22.609375 C 20.629415 22.876377 21.323422 23.49767 21.464844 23.777344 C 21.564576 23.974574 21.817314 24.32773 21.896484 24.523438 C 22.158814 25.17192 21.944131 25.174938 22.640625 25.685547 C 22.818711 25.816101 24.465335 25.627855 24.716797 25.578125 C 24.87465 25.546909 24.992559 25.403045 25.148438 25.363281 C 25.415515 25.295168 25.397605 25.413252 25.576172 25.527344 C 26.071737 25.843994 26.492107 25.806968 26.775391 26.367188 C 26.826104 26.467479 26.644073 26.634392 26.882812 26.6875 C 26.988834 26.846021 27.336854 27.32539 27.263672 27.539062 C 27.009068 28.282414 27.290103 27.389724 27.046875 27.859375 C 26.913359 28.117181 26.902217 28.530987 26.832031 28.808594 C 26.790285 28.97371 26.031879 29.648659 25.871094 29.759766 C 25.798456 29.809965 25.323095 29.781044 25.259766 29.759766 C 24.668939 29.561086 24.166836 29.112937 23.537109 28.90625 C 23.138675 28.775475 22.816979 29.063055 22.464844 29.121094 C 22.094131 29.182194 21.42772 29.192221 21.060547 29.121094 C 20.446195 29.002086 20.187193 28.610114 19.703125 28.291016 C 19.342691 28.053416 18.935025 27.814822 18.5625 27.568359 C 18.444707 27.490426 18.368148 27.315166 18.242188 27.251953 C 18.128446 27.194897 17.98257 27.217004 17.873047 27.152344 C 17.687073 27.042542 17.292723 26.538528 17.234375 26.310547 C 17.091811 25.753535 17.54075 25.378485 17.451172 24.830078 C 18.185356 23.97759 17.905638 24.460663 18.607422 23.998047 C 18.899635 23.805419 19.335264 23.099355 19.685547 22.822266 C 19.749697 22.77152 20.025322 22.575273 20.226562 22.556641 z " style="fill:#c3875f;fill-opacity:1;stroke:none;stroke-width:1.24837px;stroke-linecap:butt;stroke-linejoin:miter;stroke-opacity:1" transform="scale(0.26458333)"/>
<g style="clip-rule:evenodd;display:inline;mix-blend-mode:normal;fill:#ffffff;fill-rule:evenodd;stroke:#eccdb8;stroke-width:20.53;stroke-miterlimit:4;stroke-dasharray:none;stroke-opacity:1;image-rendering:optimizeQuality;shape-rendering:geometricPrecision;text-rendering:geometricPrecision" transform="matrix(0.0224657,0,0,0.02136487,-7.5205811,-14.868276)">
<g style="fill:#ffffff;stroke:#eccdb8;stroke-width:20.53;stroke-miterlimit:4;stroke-dasharray:none;stroke-opacity:1">
<g style="fill:#ffffff;stroke:#eccdb8;stroke-width:20.53;stroke-miterlimit:4;stroke-dasharray:none;stroke-opacity:1">
<g style="fill:#ffffff;stroke:#eccdb8;stroke-width:20.53;stroke-miterlimit:4;stroke-dasharray:none;stroke-opacity:1">
<g style="fill:#ffffff;stroke:#eccdb8;stroke-width:20.53;stroke-miterlimit:4;stroke-dasharray:none;stroke-opacity:1"/>
<g style="fill:#ffffff;stroke:#eccdb8;stroke-width:20.53;stroke-miterlimit:4;stroke-dasharray:none;stroke-opacity:1">
<g style="fill:#ffffff;stroke:#eccdb8;stroke-width:20.53;stroke-miterlimit:4;stroke-dasharray:none;stroke-opacity:1"/>
<g style="fill:#ffffff;stroke:#eccdb8;stroke-width:20.53;stroke-miterlimit:4;stroke-dasharray:none;stroke-opacity:1"/>
</g>
<g style="fill:#ffffff;stroke:#eccdb8;stroke-width:20.53;stroke-miterlimit:4;stroke-dasharray:none;stroke-opacity:1">
<g style="fill:#ffffff;stroke:#eccdb8;stroke-width:20.53;stroke-miterlimit:4;stroke-dasharray:none;stroke-opacity:1"/>
<g style="fill:#ffffff;stroke:#eccdb8;stroke-width:20.53;stroke-miterlimit:4;stroke-dasharray:none;stroke-opacity:1"/>
</g>
<g style="fill:#ffffff;stroke:#eccdb8;stroke-width:20.53;stroke-miterlimit:4;stroke-dasharray:none;stroke-opacity:1">
<g style="fill:#ffffff;stroke:#eccdb8;stroke-width:20.53;stroke-miterlimit:4;stroke-dasharray:none;stroke-opacity:1"/>
<g style="fill:#ffffff;stroke:#eccdb8;stroke-width:20.53;stroke-miterlimit:4;stroke-dasharray:none;stroke-opacity:1"/>
</g>
<g style="fill:#ffffff;stroke:#eccdb8;stroke-width:20.53;stroke-miterlimit:4;stroke-dasharray:none;stroke-opacity:1">
<g style="fill:#ffffff;stroke:#eccdb8;stroke-width:20.53;stroke-miterlimit:4;stroke-dasharray:none;stroke-opacity:1"/>
<g style="fill:#ffffff;stroke:#eccdb8;stroke-width:20.53;stroke-miterlimit:4;stroke-dasharray:none;stroke-opacity:1"/>
</g>
<g style="fill:#ffffff;stroke:#eccdb8;stroke-width:20.53;stroke-miterlimit:4;stroke-dasharray:none;stroke-opacity:1">
<g style="fill:#ffffff;stroke:#eccdb8;stroke-width:20.53;stroke-miterlimit:4;stroke-dasharray:none;stroke-opacity:1"/>
<g style="fill:#ffffff;stroke:#eccdb8;stroke-width:20.53;stroke-miterlimit:4;stroke-dasharray:none;stroke-opacity:1"/>
</g>
<g style="fill:#ffffff;stroke:#eccdb8;stroke-width:20.53;stroke-miterlimit:4;stroke-dasharray:none;stroke-opacity:1">
<g style="fill:#ffffff;stroke:#eccdb8;stroke-width:20.53;stroke-miterlimit:4;stroke-dasharray:none;stroke-opacity:1"/>
<g style="fill:#ffffff;stroke:#eccdb8;stroke-width:20.53;stroke-miterlimit:4;stroke-dasharray:none;stroke-opacity:1"/>
</g>
<g style="fill:#ffffff;stroke:#eccdb8;stroke-width:20.53;stroke-miterlimit:4;stroke-dasharray:none;stroke-opacity:1">
<g style="fill:#ffffff;stroke:#eccdb8;stroke-width:20.53;stroke-miterlimit:4;stroke-dasharray:none;stroke-opacity:1"/>
<g style="fill:#ffffff;stroke:#eccdb8;stroke-width:20.53;stroke-miterlimit:4;stroke-dasharray:none;stroke-opacity:1"/>
</g>
<g style="fill:#ffffff;stroke:#eccdb8;stroke-width:20.53;stroke-miterlimit:4;stroke-dasharray:none;stroke-opacity:1">
<g style="fill:#ffffff;stroke:#eccdb8;stroke-width:20.53;stroke-miterlimit:4;stroke-dasharray:none;stroke-opacity:1"/>
<g style="fill:#ffffff;stroke:#eccdb8;stroke-width:20.53;stroke-miterlimit:4;stroke-dasharray:none;stroke-opacity:1"/>
</g>
<g style="fill:#ffffff;stroke:#eccdb8;stroke-width:20.53;stroke-miterlimit:4;stroke-dasharray:none;stroke-opacity:1">
<g style="fill:#ffffff;stroke:#eccdb8;stroke-width:20.53;stroke-miterlimit:4;stroke-dasharray:none;stroke-opacity:1"/>
<g style="fill:#ffffff;stroke:#eccdb8;stroke-width:20.53;stroke-miterlimit:4;stroke-dasharray:none;stroke-opacity:1"/>
</g>
<g style="fill:#ffffff;stroke:#eccdb8;stroke-width:20.53;stroke-miterlimit:4;stroke-dasharray:none;stroke-opacity:1">
<g style="fill:#ffffff;stroke:#eccdb8;stroke-width:20.53;stroke-miterlimit:4;stroke-dasharray:none;stroke-opacity:1"/>
<g style="fill:#ffffff;stroke:#eccdb8;stroke-width:20.53;stroke-miterlimit:4;stroke-dasharray:none;stroke-opacity:1"/>
</g>
<g style="fill:#ffffff;stroke:#eccdb8;stroke-width:20.53;stroke-miterlimit:4;stroke-dasharray:none;stroke-opacity:1">
<g style="fill:#ffffff;stroke:#eccdb8;stroke-width:20.53;stroke-miterlimit:4;stroke-dasharray:none;stroke-opacity:1"/>
<g style="fill:#ffffff;stroke:#eccdb8;stroke-width:20.53;stroke-miterlimit:4;stroke-dasharray:none;stroke-opacity:1"/>
</g>
<g style="fill:#ffffff;stroke:#eccdb8;stroke-width:20.53;stroke-miterlimit:4;stroke-dasharray:none;stroke-opacity:1">
<g style="fill:#ffffff;stroke:#eccdb8;stroke-width:20.53;stroke-miterlimit:4;stroke-dasharray:none;stroke-opacity:1"/>
<g style="fill:#ffffff;stroke:#eccdb8;stroke-width:20.53;stroke-miterlimit:4;stroke-dasharray:none;stroke-opacity:1"/>
</g>
<g style="fill:#ffffff;stroke:#eccdb8;stroke-width:20.53;stroke-miterlimit:4;stroke-dasharray:none;stroke-opacity:1">
<g style="fill:#ffffff;stroke:#eccdb8;stroke-width:20.53;stroke-miterlimit:4;stroke-dasharray:none;stroke-opacity:1"/>
<g style="fill:#ffffff;stroke:#eccdb8;stroke-width:20.53;stroke-miterlimit:4;stroke-dasharray:none;stroke-opacity:1"/>
</g>
<g style="fill:#ffffff;stroke:#eccdb8;stroke-width:20.53;stroke-miterlimit:4;stroke-dasharray:none;stroke-opacity:1">
<g style="fill:#ffffff;stroke:#eccdb8;stroke-width:20.53;stroke-miterlimit:4;stroke-dasharray:none;stroke-opacity:1"/>
<g style="fill:#ffffff;stroke:#eccdb8;stroke-width:20.53;stroke-miterlimit:4;stroke-dasharray:none;stroke-opacity:1"/>
</g>
<g style="fill:#ffffff;stroke:#eccdb8;stroke-width:20.53;stroke-miterlimit:4;stroke-dasharray:none;stroke-opacity:1">
<g style="fill:#ffffff;stroke:#eccdb8;stroke-width:20.53;stroke-miterlimit:4;stroke-dasharray:none;stroke-opacity:1"/>
<g style="fill:#ffffff;stroke:#eccdb8;stroke-width:20.53;stroke-miterlimit:4;stroke-dasharray:none;stroke-opacity:1"/>
</g>
<g style="fill:#ffffff;stroke:#eccdb8;stroke-width:20.53;stroke-miterlimit:4;stroke-dasharray:none;stroke-opacity:1">
<g style="fill:#ffffff;stroke:#eccdb8;stroke-width:20.53;stroke-miterlimit:4;stroke-dasharray:none;stroke-opacity:1"/>
<g style="fill:#ffffff;stroke:#eccdb8;stroke-width:20.53;stroke-miterlimit:4;stroke-dasharray:none;stroke-opacity:1"/>
</g>
<polyline fill="none" points="794,2079 794,2078 794,1783 794,1488 794,1194 794,899 794,898 " stroke="#000000" stroke-width="2.36229" style="fill:#ffffff;stroke:#eccdb8;stroke-width:20.53;stroke-miterlimit:4;stroke-dasharray:none;stroke-opacity:1" transform="matrix(1,0,0,1.0194797,0,-61.277549)"/>
<polyline fill="none" points="1089,2079 1089,2078 1089,1783 1089,1488 1089,1194 1089,899 1089,898 " stroke="#000000" stroke-width="2.36229" style="fill:#ffffff;stroke:#eccdb8;stroke-width:20.53;stroke-miterlimit:4;stroke-dasharray:none;stroke-opacity:1" transform="matrix(1,0,0,0.94115892,0,100.06717)"/>
<polyline fill="none" points="1383,2079 1383,2078 1383,1783 1383,1488 1383,1194 1383,899 1383,898 " stroke="#000000" stroke-width="2.36229" style="fill:#ffffff;stroke:#eccdb8;stroke-width:20.53;stroke-miterlimit:4;stroke-dasharray:none;stroke-opacity:1" transform="matrix(1,0,0,0.90190986,0,88.084947)"/>
<polyline fill="none" points="498,1783 499,1783 794,1783 1089,1783 1383,1783 1678,1783 1679,1783 " stroke="#000000" stroke-width="2.36229" style="fill:#ffffff;stroke:#eccdb8;stroke-width:20.53;stroke-miterlimit:4;stroke-dasharray:none;stroke-opacity:1" transform="matrix(0.96069695,0,0,1,45.523052,0)"/>
<polyline fill="none" points="498,1488 499,1488 794,1488 1089,1488 1383,1488 1678,1488 1679,1488 " stroke="#000000" stroke-width="2.36229" style="fill:#ffffff;stroke:#eccdb8;stroke-width:20.53;stroke-miterlimit:4;stroke-dasharray:none;stroke-opacity:1" transform="matrix(0.924704,0,0,1,37.497407,0)"/>
<polyline fill="none" points="498,1194 499,1194 794,1194 1089,1194 1383,1194 1678,1194 1679,1194 " stroke="#000000" stroke-width="2.36229" style="fill:#ffffff;stroke:#eccdb8;stroke-width:20.53;stroke-miterlimit:4;stroke-dasharray:none;stroke-opacity:1"/>
</g>
</g>
</g>
</g>
<path d="m 10.501571,4.4176882 c -0.0057,0.3481996 -0.01004,0.6992069 0.09513,1.0147316 0.02005,0.060166 -0.01043,0.1277043 0,0.1902621 0.06726,0.4035851 0.161384,0.7933253 0.634207,0.8878901 0.329904,0.065981 0.475291,-0.1965312 0.761049,-0.2536831 0.260304,-0.052061 0.532917,-0.079598 0.792759,-0.1268412 0.32586,-0.059247 0.684125,0.030055 1.014731,0 0.524306,-0.047664 1.060238,-0.036767 1.585518,-0.095131 0.199155,-0.022127 0.919601,-0.1235006 0.919601,-0.4439452 0,-0.1263023 -0.584515,-0.6116489 -0.665918,-0.6659173 -0.305915,-0.2039435 -0.59998,-0.4109768 -0.9196,-0.5707867 -0.293682,-0.1468411 -2.294233,-0.1902621 -2.695381,-0.1902621 -0.517935,0 -1.140155,-0.1282595 -1.522097,0.253683 z" style="fill:#e2b08e;fill-opacity:1;stroke:none;stroke-width:0.264583px;stroke-linecap:butt;stroke-linejoin:miter;stroke-opacity:1"/>
</g>
<g style="display:none">
<path d="m 5.054146,27.148258 1.1105545,0.09452 c -0.268132,-1.97393 0.154926,-3.671384 0.8270089,-5.269227 0.999815,0.341038 1.8283325,1.538564 2.7409431,2.315624 C 9.3639092,23.196866 8.9035978,22.320659 7.9532539,21.679996 8.5418402,21.192538 9.5996665,21.313052 10.878651,21.79633 10.495393,21.035879 9.0159713,19.808968 7.2728428,20.814774 6.6088876,19.667871 5.2509455,19.780861 4.2153227,19.988725 c 0.851916,0.320478 1.78624,0.515709 1.9081512,1.000854 -0.2856991,-0.27926 -1.7562428,0.326177 -2.2389546,0.983968 1.2199297,-0.455742 2.2478571,-0.502396 2.8000154,-0.21266 -1.1736054,1.969079 -1.3864925,3.65072 -1.6303887,5.387371 z" style="fill:#814f2b;fill-opacity:1;stroke:none;stroke-width:0.197153px;stroke-linecap:butt;stroke-linejoin:miter;stroke-opacity:1"/>
<path d="m 16.255733,9.1868964 c -0.570272,0.2281084 -1.615666,0.020069 -2.242262,0.08969 -0.396366,0.044041 -0.694974,0.3945364 -0.986594,0.6278324 -0.661854,0.5294832 -1.03144,1.0009672 -1.03144,1.8834992 0,0.164433 -0.052,0.337303 0,0.493298 0.123393,0.37018 0.582378,0.666185 0.941749,0.717523 0.780799,0.111543 1.586585,0.217011 2.376797,0.179382 0.443346,-0.02111 0.87119,-0.138362 1.300511,-0.224227 0.591646,-0.118329 1.464786,-0.130287 2.062881,-0.04484 0.733685,0.104812 1.840811,0.700628 2.601023,0.493297 C 22.27042,13.1318 23.116393,10.978732 22.803135,10.03896 22.692519,9.7071128 22.464564,9.4761618 22.220147,9.2317461 21.281829,8.2934278 19.20487,8.0749271 17.982274,8.1666699 17.312666,8.2169168 16.883527,8.9357787 16.255733,9.1868964 Z" style="fill:#814f2b;fill-opacity:1;stroke:none;stroke-width:0.264583px;stroke-linecap:butt;stroke-linejoin:miter;stroke-opacity:1"/>
<circle cx="7.8808208" cy="26.762747" r="0.61914885" style="opacity:0.996;fill:#814f2b;fill-opacity:1;stroke:none;stroke-width:0.329324;stroke-miterlimit:4;stroke-dasharray:none;stroke-dashoffset:0;stroke-opacity:1"/>
<path d="m 29.184011,6.162331 c -0.910407,0.1288829 -0.780425,0.9641565 0.265153,1.0771922 l -0.182293,1.4252095 0.827179,0.021997 -0.155516,-1.424889 c 1.571138,0.4178395 1.221869,-0.9957623 0.422113,-1.29837 0.604847,-0.4086708 0.385331,-1.2618915 -0.309603,-1.3717089 -0.755686,-0.119417 -1.855676,0.5996687 -0.867021,1.5705769 z" style="display:inline;fill:#814f2b;fill-opacity:1;stroke:none;stroke-width:0.276548px;stroke-linecap:butt;stroke-linejoin:miter;stroke-opacity:1"/>
<path d="m 25.568151,6.3329013 -0.182294,1.4252094 0.480594,0.049719 0.0663,-1.5080682 1.018678,0.1326076 L 26.268061,3.273414 24.479324,5.98671 Z" style="display:inline;fill:#814f2b;fill-opacity:1;stroke:none;stroke-width:0.276548px;stroke-linecap:butt;stroke-linejoin:miter;stroke-opacity:1"/>
<path d="m 27.050656,10.229586 -0.182294,1.425209 0.480594,0.04972 0.03856,-1.369434 c 1.844737,0.630763 0.740464,-2.6571759 0.265008,-2.7532593 -1.439537,0.7143229 -1.731901,2.4925623 -0.601877,2.6477683 z" style="display:inline;fill:#814f2b;fill-opacity:1;stroke:none;stroke-width:0.276548px;stroke-linecap:butt;stroke-linejoin:miter;stroke-opacity:1"/>
<g transform="translate(-2.4216421,0.67267836)">
<path d="m 17.44894,22.415104 2.790511,0.221973 c 0.991675,-1.0695 1.367,-2.818768 1.300125,-5.168789 1.319223,1.534709 2.430826,3.277039 3.075905,5.485893 l 0.72934,0.126841 c -0.597664,-2.560572 -2.190355,-4.58536 -3.868665,-6.564045 -2.011366,1.803156 -3.282112,3.757301 -4.027216,5.898127 z" style="fill:#814f2b;fill-opacity:1;stroke:none;stroke-width:0.264583px;stroke-linecap:butt;stroke-linejoin:miter;stroke-opacity:1"/>
<path d="m 29.532617,21.319368 c -0.611089,0.01113 -1.100663,0.509672 -1.100708,1.120862 -1.37e-4,0.619377 0.502002,1.121516 1.121379,1.121379 0.619175,-1.49e-4 1.120998,-0.502204 1.120861,-1.121379 -1.48e-4,-0.618973 -0.501888,-1.120713 -1.120861,-1.120862 -0.0069,-6.3e-5 -0.01378,-6.3e-5 -0.02067,0 z m 0.473052,0.410527 c 0.225382,0.1471 0.374361,0.401497 0.374441,0.690698 1.59e-4,0.455364 -0.368875,0.824629 -0.824239,0.824756 -0.127657,-3.6e-5 -0.24853,-0.02908 -0.356385,-0.0809 0.438362,-0.842336 -0.145016,-1.367931 0.806183,-1.43455 z" style="opacity:0.996;fill:#814f2b;fill-opacity:1;stroke:none;stroke-width:0.165;stroke-miterlimit:4;stroke-dasharray:none;stroke-dashoffset:0;stroke-opacity:1"/>
<path d="m 24.059462,19.530094 c 0.522183,0.528286 1.007365,1.524982 1.233244,2.23105 0.431691,-1.893862 1.367926,-3.658073 3.139164,-4.843284 1.310717,1.36346 1.642021,2.287166 1.861079,4.226662 l 0.60541,0.739952 c -0.37016,-2.638575 -0.589815,-3.96828 -2.870094,-6.143796 -1.423201,1.036862 -3.270004,2.139598 -3.968803,3.789416 z" style="fill:#814f2b;fill-opacity:1;stroke:none;stroke-width:0.264583px;stroke-linecap:butt;stroke-linejoin:miter;stroke-opacity:1"/>
<circle cx="30.763823" cy="23.420418" r="0.31391656" style="opacity:0.996;fill:#814f2b;fill-opacity:1;stroke:none;stroke-width:0.421;stroke-miterlimit:4;stroke-dasharray:none;stroke-dashoffset:0;stroke-opacity:0.31"/>
<circle cx="31.077457" cy="22.653357" r="0.22042732" style="opacity:0.996;fill:#814f2b;fill-opacity:1;stroke:none;stroke-width:0.290433;stroke-miterlimit:4;stroke-dasharray:none;stroke-dashoffset:0;stroke-opacity:0.31"/>
<path d="m 31.708446,23.083184 a 0.44284656,0.44284656 0 0 0 -0.438216,0.442867 0.44284656,0.44284656 0 0 0 0.442865,0.442867 0.44284656,0.44284656 0 0 0 0.442867,-0.442867 0.44284656,0.44284656 0 0 0 -0.442867,-0.442867 0.44284656,0.44284656 0 0 0 -0.0046,0 z m 0.0046,0.206189 a 0.25185603,0.25185603 0 0 1 0.0047,0 0.25185603,0.25185603 0 0 1 0.251664,0.252181 0.25185603,0.25185603 0 0 1 -0.251664,0.251664 0.25185603,0.25185603 0 0 1 -0.251664,-0.251664 0.25185603,0.25185603 0 0 1 0.247013,-0.252181 z" style="display:inline;opacity:0.996;fill:#814f2b;fill-opacity:1;stroke:none;stroke-width:0.59391;stroke-miterlimit:4;stroke-dasharray:none;stroke-dashoffset:0;stroke-opacity:0.31"/>
</g>
<path d="m 13.697222,11.454847 c 0.521327,0.412933 1.197809,0.64805 1.83368,-0.42809 0.305764,0.517315 1.303072,0.851132 1.793809,-0.02242 0.689331,0.827148 1.332902,0.882738 1.991299,0.28403 -0.269469,0.639035 -1.336128,0.976403 -1.949641,0.193644 -0.57297,0.699579 -1.495202,0.742568 -1.813744,-0.04644 -0.504223,0.862286 -1.393939,1.030598 -1.855403,0.01928 z" style="fill:#efc9af;fill-opacity:1;stroke:none;stroke-width:0.264583px;stroke-linecap:butt;stroke-linejoin:miter;stroke-opacity:1"/>
<path d="m 21.448326,9.7904143 c -0.443935,0.3748837 -1.028233,0.5987397 -1.613003,-0.3235791 -0.252833,0.4601277 -1.114589,0.7789668 -1.567068,0.029582 -0.579293,0.7412028 -1.139771,0.8073848 -1.731128,0.3026032 0.252828,0.5506556 1.193539,0.8160316 1.707842,0.1156699 0.519522,0.5952077 1.326042,0.6074747 1.582588,-0.090261 0.463947,0.7391777 1.245509,0.8617747 1.620769,-0.034011 z" style="display:inline;fill:#efc9af;fill-opacity:1;stroke:none;stroke-width:0.231162px;stroke-linecap:butt;stroke-linejoin:miter;stroke-opacity:1"/>
</g>
<g style="display:none">
<path d="m 11.730193,7.9724356 c 1.048325,-1.2289152 3.755802,-3.0004748 7.191718,-2.8565727 3.569458,0.1259051 7.626419,5.6379061 5.756444,8.4497981 -2.858826,3.397844 -7.002653,2.361859 -10.661055,4.229293 -0.720726,0.38156 -1.798951,0.893811 -2.283146,1.585518 -1.241768,1.773954 -0.71153,5.745661 1.851402,6.477927 1.660659,0.474474 4.563196,-0.775695 7.128071,-0.349747 3.030417,0.503261 7.596966,1.359972 7.596966,1.359972" style="display:inline;fill:none;fill-opacity:1;stroke:#b1251c;stroke-width:0.565;stroke-linecap:butt;stroke-linejoin:miter;stroke-miterlimit:4;stroke-dasharray:2.26, 2.26;stroke-dashoffset:0;stroke-opacity:1"/>
<g style="display:inline" transform="translate(-0.21746535,1.4721981)">
<path d="M 5.4541821,8.5617978 7.198252,7.2933832 c 0.181079,1.975919 1.7752309,3.4355638 3.646692,4.5662918 L 8.9106115,12.620724 C 8.6020927,10.82672 7.1918191,9.5992099 5.4541821,8.5617978 Z" style="fill:#b1251c;fill-opacity:1;stroke:none;stroke-width:0.264583px;stroke-linecap:butt;stroke-linejoin:miter;stroke-opacity:1"/>
<path d="M 6.3737828,12.493883 C 7.7504318,10.639332 9.2251912,9.6024697 11.193758,9.1008738 L 10.55955,7.5153556 C 9.0038563,9.2537665 7.2105584,10.279366 5.2322096,10.749813 Z" style="fill:#b1251c;fill-opacity:1;stroke:none;stroke-width:0.264583px;stroke-linecap:butt;stroke-linejoin:miter;stroke-opacity:1"/>
</g>
</g>
<g style="display:inline">
<path d="m 14.106754,9.1093915 c 6.701854,-5.2286368 17.367693,-0.9294213 13.062504,5.0232765 -3.783766,4.694133 -9.01422,0.71859 -11.333848,4.07508 -2.244004,3.247058 -1.675534,6.607967 0.861666,7.527652 4.900316,-0.116368 6.521781,-0.234091 12.76064,0.888308" style="display:inline;fill:none;fill-opacity:1;stroke:#b1251c;stroke-width:1.17921;stroke-linecap:butt;stroke-linejoin:miter;stroke-miterlimit:4;stroke-dasharray:3.53764, 3.53764;stroke-dashoffset:0;stroke-opacity:1"/>
<g style="display:inline" transform="matrix(1.322616,0,0,1.3185633,-2.3321494,-0.7769037)">
<path d="M 5.4541821,8.5617978 7.198252,7.2933832 c 0.181079,1.975919 1.7752309,3.4355638 3.646692,4.5662918 L 8.9106115,12.620724 C 8.6020927,10.82672 7.1918191,9.5992099 5.4541821,8.5617978 Z" style="fill:#b1251c;fill-opacity:1;stroke:none;stroke-width:0.264583px;stroke-linecap:butt;stroke-linejoin:miter;stroke-opacity:1"/>
<path d="M 6.3737828,12.493883 C 7.7504318,10.639332 9.2251912,9.6024697 11.193758,9.1008738 L 10.55955,7.5153556 C 9.0038563,9.2537665 7.2105584,10.279366 5.2322096,10.749813 Z" style="fill:#b1251c;fill-opacity:1;stroke:none;stroke-width:0.264583px;stroke-linecap:butt;stroke-linejoin:miter;stroke-opacity:1"/>
</g>
</g>
</svg>
