<?xml version="1.0" encoding="UTF-8"?>
<!DOCTYPE svg PUBLIC "-//W3C//DTD SVG 1.1 Tiny//EN" "http://www.w3.org/Graphics/SVG/1.1/DTD/svg11-tiny.dtd">
<svg xmlns="http://www.w3.org/2000/svg" xmlns:xlink="http://www.w3.org/1999/xlink" baseProfile="tiny" fill-rule="evenodd" height="128px" version="1.1" viewBox="0 0 128 128" width="128px">
<g visibility="hidden">
<metadata/>
<rect fill="none" height="115" width="115" x="7" y="7"/>
</g>
<g>
<path d="M102 27c2,12 -9,1 0,0l0 0zm-88 59c0,12 5,16 3,24 0,1 0,3 1,4 2,2 32,2 35,1 5,-2 12,-2 18,-3 0,-1 0,-2 0,-3 0,-11 -1,-6 4,-10 3,-3 15,-7 16,0 1,5 0,8 1,10 7,-1 9,3 19,3 4,0 3,-14 4,-17 2,-5 -1,-18 -4,-22 -2,-4 -2,-19 0,-22 4,-5 2,-17 2,-23 0,-10 -4,-10 -5,-12 -15,-2 -15,11 -18,9 -4,-2 -15,-2 -15,-2 -10,-9 3,-9 -20,-9 -13,0 -13,7 -19,3 -4,-3 -24,-7 -20,1 1,3 -2,21 0,24 4,4 1,21 5,21 10,1 -6,19 -6,24zm20 -54c-7,-1 -5,0 -7,0 -14,1 -2,-8 1,-8 0,0 2,2 3,2 6,0 3,6 3,6z" fill="#D69C75"/>
<g>
<g>
<g>
<line fill="none" stroke="#F0D5C3" stroke-width="1.66957" x1="21" x2="110" y1="102" y2="102"/>
<g>
<path d="M21 82c30,0 59,0 89,0" fill="none" stroke="#F0D5C3" stroke-width="1.66957"/>
<path d="M21 63c30,0 59,0 89,0" fill="none" stroke="#F0D5C3" stroke-width="1.66957"/>
<path d="M21 44c30,0 59,0 89,0" fill="none" stroke="#F0D5C3" stroke-width="1.66957"/>
</g>
<line fill="none" stroke="#F0D5C3" stroke-width="1.66957" x1="21" x2="110" y1="25" y2="25"/>
<line fill="none" stroke="#F0D5C3" stroke-width="1.66957" x1="27" x2="27" y1="19" y2="108"/>
<g>
<path d="M46 19c0,30 0,59 0,89" fill="none" stroke="#F0D5C3" stroke-width="1.66957"/>
<path d="M65 19c0,30 0,59 0,89" fill="none" stroke="#F0D5C3" stroke-width="1.66957"/>
<path d="M85 19c0,30 0,59 0,89" fill="none" stroke="#F0D5C3" stroke-width="1.66957"/>
</g>
<line fill="none" stroke="#F0D5C3" stroke-width="1.66957" x1="104" x2="104" y1="19" y2="108"/>
</g>
</g>
</g>
<path d="M102 27c2,12 -9,1 0,0l0 0zm-88 59c0,12 5,16 3,24 0,1 0,3 1,4 2,2 32,2 35,1 5,-2 12,-2 18,-3 0,-1 0,-2 0,-3 0,-11 -1,-6 4,-10 3,-3 15,-7 16,0 1,5 0,8 1,10 7,-1 9,3 19,3 4,0 3,-14 4,-17 2,-5 -1,-18 -4,-22 -2,-4 -2,-19 0,-22 4,-5 2,-17 2,-23 0,-10 -4,-10 -5,-12 -15,-2 -15,11 -18,9 -4,-2 -15,-2 -15,-2 -10,-9 3,-9 -20,-9 -13,0 -13,7 -19,3 -4,-3 -24,-7 -20,1 1,3 -2,21 0,24 4,4 1,21 5,21 10,1 -6,19 -6,24zm20 -54c-7,-1 -5,0 -7,0 -14,1 -2,-8 1,-8 0,0 2,2 3,2 6,0 3,6 3,6z" fill="none" stroke="#96613E" stroke-width="2.78261"/>
</g>
<g>
<g>
<line fill="none" stroke="black" stroke-width="1.66957" x1="40" x2="52" y1="30" y2="41"/>
<line fill="none" stroke="black" stroke-width="1.66957" x1="55" x2="40" y1="32" y2="43"/>
</g>
<path d="M60 37c6,0 20,3 21,11 2,12 -2,14 -12,21 -7,5 -36,6 -24,26 3,5 35,9 36,-11 0,-4 2,-11 -7,-10 0,0 -13,17 16,17 2,0 4,0 6,0" fill="none" stroke="black" stroke-dasharray="3.339130 5.008696" stroke-width="1.66957"/>
<path d="M105 95c-5,-1 -9,2 -9,-7 0,-2 12,-12 13,3 0,1 -3,3 -3,3z" fill="none" stroke="black" stroke-width="1.66957"/>
</g>
</svg>
