<?xml version="1.0" encoding="UTF-8" standalone="no"?>
<svg
   xmlns:dc="http://purl.org/dc/elements/1.1/"
   xmlns:cc="http://creativecommons.org/ns#"
   xmlns:rdf="http://www.w3.org/1999/02/22-rdf-syntax-ns#"
   xmlns:svg="http://www.w3.org/2000/svg"
   xmlns="http://www.w3.org/2000/svg"
   xmlns:sodipodi="http://sodipodi.sourceforge.net/DTD/sodipodi-0.dtd"
   xmlns:inkscape="http://www.inkscape.org/namespaces/inkscape"
   width="128"
   height="128"
   viewBox="0 0 33.866666 33.866668"
   version="1.1"
   id="svg8"
   inkscape:version="1.0.1 (3bc2e813f5, 2020-09-07)"
   sodipodi:docname="s60maps icon v2.svg"
   inkscape:export-filename="D:\Документы\Проекты\s60 map\Пиктограмма\v2\s60maps icon v2 8.png"
   inkscape:export-xdpi="96.000008"
   inkscape:export-ydpi="96.000008">
  <defs
     id="defs2">
    <clipPath
       id="id0">
      <path
         d="M499 899l295 0 0 295 -295 0 0 -295z"
         id="path3885" />
    </clipPath>
    <clipPath
       id="id1">
      <path
         d="M794 899l295 0 0 295 -295 0 0 -295z"
         id="path3888" />
    </clipPath>
    <clipPath
       id="id2">
      <path
         d="M1089 899l295 0 0 295 -295 0 0 -295z"
         id="path3891" />
    </clipPath>
    <clipPath
       id="id3">
      <path
         d="M1383 899l295 0 0 295 -295 0 0 -295z"
         id="path3894" />
    </clipPath>
    <clipPath
       id="id4">
      <path
         d="M499 1194l295 0 0 295 -295 0 0 -295z"
         id="path3897" />
    </clipPath>
    <clipPath
       id="id5">
      <path
         d="M794 1194l295 0 0 295 -295 0 0 -295z"
         id="path3900" />
    </clipPath>
    <clipPath
       id="id6">
      <path
         d="M1089 1194l295 0 0 295 -295 0 0 -295z"
         id="path3903" />
    </clipPath>
    <clipPath
       id="id7">
      <path
         d="M1383 1194l295 0 0 295 -295 0 0 -295z"
         id="path3906" />
    </clipPath>
    <clipPath
       id="id8">
      <path
         d="M499 1488l295 0 0 295 -295 0 0 -295z"
         id="path3909" />
    </clipPath>
    <clipPath
       id="id9">
      <path
         d="M794 1488l295 0 0 295 -295 0 0 -295z"
         id="path3912" />
    </clipPath>
    <clipPath
       id="id10">
      <path
         d="M1089 1488l295 0 0 295 -295 0 0 -295z"
         id="path3915" />
    </clipPath>
    <clipPath
       id="id11">
      <path
         d="M1383 1488l295 0 0 295 -295 0 0 -295z"
         id="path3918" />
    </clipPath>
    <clipPath
       id="id12">
      <path
         d="M499 1783l295 0 0 295 -295 0 0 -295z"
         id="path3921" />
    </clipPath>
    <clipPath
       id="id13">
      <path
         d="M794 1783l295 0 0 295 -295 0 0 -295z"
         id="path3924" />
    </clipPath>
    <clipPath
       id="id14">
      <path
         d="M1089 1783l295 0 0 295 -295 0 0 -295z"
         id="path3927" />
    </clipPath>
    <clipPath
       id="id15">
      <path
         d="M1383 1783l295 0 0 295 -295 0 0 -295z"
         id="path3930" />
    </clipPath>
  </defs>
  <sodipodi:namedview
     id="base"
     pagecolor="#ffffff"
     bordercolor="#666666"
     borderopacity="1.0"
     inkscape:pageopacity="0.0"
     inkscape:pageshadow="2"
     inkscape:zoom="2.0859376"
     inkscape:cx="25.964642"
     inkscape:cy="54.30705"
     inkscape:document-units="mm"
     inkscape:current-layer="layer1"
     inkscape:document-rotation="0"
     showgrid="false"
     units="px"
     inkscape:pagecheckerboard="false"
     inkscape:window-width="1024"
     inkscape:window-height="716"
     inkscape:window-x="-8"
     inkscape:window-y="-8"
     inkscape:window-maximized="1"
     inkscape:snap-global="false" />
  <metadata
     id="metadata5">
    <rdf:RDF>
      <cc:Work
         rdf:about="">
        <dc:format>image/svg+xml</dc:format>
        <dc:type
           rdf:resource="http://purl.org/dc/dcmitype/StillImage" />
        <dc:title />
      </cc:Work>
    </rdf:RDF>
  </metadata>
  <g
     inkscape:label="Paper"
     inkscape:groupmode="layer"
     id="layer1"
     style="display:inline">
    <path
       id="path10"
       style="fill:#b57d58;fill-opacity:1;stroke-width:5.34675"
       d="M 103.64937,8.7049465 C 92.8999,10.978788 51.202817,5.0509725 31.900391,8.9746094 27.550432,13.167232 21.646581,14.947928 15.816406,12.335938 14.429646,11.714652 7.4665381,11.620102 4.8652344,12.671875 3.9067106,22.588126 8.3788725,26.943336 8.4177833,36.860903 8.4499123,45.04998 4.7547278,52.263049 5.4349672,64.177476 6.0076958,74.208845 9.7730346,78.203581 9.6138766,84.91516 9.5189446,88.918375 8.3185903,92.3101 5.8925781,94.992188 c -0.00405,11.003762 1.3413582,18.099362 9.9238279,24.529292 9.751321,-0.89805 20.655368,0.54584 29.469252,-0.83832 2.532661,-3.54493 7.408343,1.06159 10.435119,1.25901 5.505947,0.35913 12.247545,0.0224 17.068954,-1.4254 1.777496,-7.46951 6.60409,-14.03424 15.908684,-9.24418 5.468983,2.81547 10.782212,6.88783 17.119945,5.54387 6.21872,-1.31872 8.96257,1.73696 10.06646,-4.54027 1.73092,-9.84282 4.55176,-29.759703 2.2519,-35.444109 -9.78269,-24.179212 -0.33071,-22.393913 4.79101,-38.640625 0.80362,-2.549191 -0.052,-16.664471 -2.27468,-20.652256 -3.46521,-6.2172002 -9.80427,-8.3571496 -17.00368,-6.8342535 z M 20.488281,22.857422 c 1.527611,-0.02376 0.937446,2.691692 2.314453,3.353516 1.175621,0.565032 3.435353,-1.39581 4.335938,0.810546 0.530349,1.299309 -0.640641,2.124071 -1.992188,2.501954 -2.21103,0.618187 -6.860212,-0.641513 -7.634765,-2.802735 -0.595026,-1.66029 1.213081,-3.835856 2.976562,-3.863281 z"
       transform="scale(0.26458333)"
       sodipodi:nodetypes="scscssscccscsssssssssssss" />
    <path
       id="path863"
       style="fill:#d69c75;fill-opacity:1;stroke:none;stroke-width:1.06851px;stroke-linecap:butt;stroke-linejoin:miter;stroke-opacity:1"
       d="M 93.004082,12.153404 C 83.260913,15.14989 76.575912,17.050945 69.483833,16.707812 57.27358,16.117048 42.960616,7.7670445 34.367188,11.564453 c -6.43165,2.842126 -17.506978,8.788215 -24.150391,5.996094 -0.3243422,5.610811 1.858344,10.905789 2.101562,15.244141 0.540893,9.648075 -2.324773,25.376348 -0.52539,33.236328 1.160388,5.068753 3.959744,11.292662 3.15039,16.742187 -1.383521,9.315495 -7.9331211,15.54447 -5.6054684,24.990237 2.3497014,9.53524 11.9973014,0.35743 18.7304684,1.5 16.161591,2.74251 26.090578,10.48082 42.448122,2.1845 3.471831,-1.76087 5.803825,-6.43458 11.908832,-7.0978 8.957565,-0.97311 26.997467,9.41714 31.167377,0.23352 3.94798,-8.694844 1.88178,-17.152819 -0.99894,-25.058504 -1.37644,-3.777436 -4.10563,-17.383771 -2.09961,-22.740234 5.17514,-13.818595 8.75042,-16.962281 8.02931,-31.248047 -0.5088,-10.079789 -2.33793,-12.039256 -6.7168,-13.982422 -3.68854,-1.6368276 -12.832146,-1.247237 -18.802568,0.588951 z m -72.961113,8.016518 c 1.870024,-0.01617 2.990966,2.403136 4.787109,2.923828 1.682396,0.487717 3.75966,-0.826901 5.25586,0.08398 1.095751,0.667093 1.96472,2.171187 1.566406,3.390625 -0.975246,2.985719 -2.145517,4.562604 -4.363282,5.38086 -2.065334,0.762016 -4.325328,-1.052074 -6.52539,-0.97461 -2.545453,0.08963 -4.17414,-0.708043 -4.492188,-2.753906 -0.240327,-1.545937 -1.306578,-3.840985 -0.634765,-5.253906 0.747076,-1.571212 2.666537,-2.781833 4.40625,-2.796875 z"
       transform="scale(0.26458333)"
       sodipodi:nodetypes="ssscsssssssssssssssssssssss" />
    <path
       style="fill:#e6bb9d;fill-opacity:1;stroke:none;stroke-width:0.264583px;stroke-linecap:butt;stroke-linejoin:miter;stroke-opacity:1"
       d="m 4.4723561,28.611469 c 1.0872831,0.09062 2.1845118,-0.552638 3.2411892,-0.492306 1.0532465,0.06014 2.2582012,0.45527 3.2978777,0.634206 0.368078,0.06335 0.56129,-0.197907 0.253683,-0.570786 C 9.7364761,26.521775 7.1393674,27.13861 5.3352682,27.516664 4.4505247,27.702065 3.3318979,28.516419 4.4723561,28.611469 Z"
       id="path1027"
       sodipodi:nodetypes="ssscss" />
    <path
       style="display:inline;fill:#b57d58;fill-opacity:1;stroke:none;stroke-width:0.264583px;stroke-linecap:butt;stroke-linejoin:miter;stroke-opacity:1"
       d="m 9.2483932,16.502833 c -0.773391,1.109028 -1.141961,2.43672 -1.473405,3.804584 -0.228477,0.942922 0.49765,2.22797 1.150861,2.439444 1.2876088,0.416858 3.4462618,-1.873285 5.5704148,-2.699228 1.131218,-0.439856 3.413812,-0.0097 4.187088,-0.94521 0.559112,-0.676411 0.387467,-2.117174 -0.103485,-2.824476 -0.67063,-0.966161 -3.091868,0.264699 -4.875041,0.03396 -0.999439,-0.129323 -1.696072,-0.854077 -2.702415,-0.800453 -0.490673,0.02615 -1.2705688,0.298119 -1.7540178,0.991375 -8e-7,1e-6 0,4e-6 0,4e-6 z"
       id="path1010"
       sodipodi:nodetypes="ssssssssss" />
    <path
       style="fill:#e6bb9d;fill-opacity:1;stroke:none;stroke-width:0.264583px;stroke-linecap:butt;stroke-linejoin:miter;stroke-opacity:1"
       d="m 20.553383,5.6007962 c -1.00213,0.2677631 -0.752267,1.2419904 0.187852,1.244678 1.089881,0.00312 4.309095,-0.084708 4.534582,0.7610493 0.423988,1.5902963 -1.453204,2.0979251 -1.96604,3.2027465 -0.166831,0.359411 -0.316955,1.123055 0.03171,1.173283 1.219171,0.175633 2.044288,0.836697 2.493577,1.184825 0.495241,0.383734 0.934518,0.318244 1.270296,-0.144741 0.279732,-0.385707 0.490256,-1.618108 1.1503,-2.19996 2.083421,-1.8366108 2.152661,-2.0979778 2.442628,-4.1674659 0.27209,-1.9418983 -1.950769,-3.687309 -3.55156,-2.9807729 -2.811018,1.24069 -4.042457,1.244776 -6.593345,1.926358 z"
       id="path855"
       sodipodi:nodetypes="sssssssssss" />
    <path
       style="fill:#e6bb9d;fill-opacity:1;stroke:none;stroke-width:0.264583px;stroke-linecap:butt;stroke-linejoin:miter;stroke-opacity:1"
       d="m 10.501571,4.4176882 c 0.01977,0.6964202 0.06382,1.9398938 0.729337,2.0928838 C 12.105439,5.9489321 16.277066,6.461568 16.304566,5.5909715 15.914885,3.9520096 11.042603,3.9839886 10.50157,4.4176884 Z"
       id="path1122"
       sodipodi:nodetypes="ccccc" />
    <g
       style="clip-rule:evenodd;display:inline;mix-blend-mode:normal;fill:#ffffff;fill-rule:evenodd;stroke:#f3e3d8;stroke-width:27.3868;stroke-miterlimit:4;stroke-dasharray:none;stroke-opacity:1;image-rendering:optimizeQuality;shape-rendering:geometricPrecision;text-rendering:geometricPrecision"
       id="g4150"
       transform="matrix(0.0224657,0,0,0.02136487,-7.5205811,-14.868276)">
      <g
         id="Слой_x0020_1"
         style="fill:#ffffff;stroke:#f3e3d8;stroke-width:27.3868;stroke-miterlimit:4;stroke-dasharray:none;stroke-opacity:1">
        <metadata
           id="CorelCorpID_0Corel-Layer" />
        <g
           id="_183211280"
           style="fill:#ffffff;stroke:#f3e3d8;stroke-width:27.3868;stroke-miterlimit:4;stroke-dasharray:none;stroke-opacity:1">
          <g
             id="g4045"
             style="fill:#ffffff;stroke:#f3e3d8;stroke-width:27.3868;stroke-miterlimit:4;stroke-dasharray:none;stroke-opacity:1">
            <g
               id="g3936"
               style="fill:#ffffff;stroke:#f3e3d8;stroke-width:27.3868;stroke-miterlimit:4;stroke-dasharray:none;stroke-opacity:1" />
            <g
               id="g3942"
               style="fill:#ffffff;stroke:#f3e3d8;stroke-width:27.3868;stroke-miterlimit:4;stroke-dasharray:none;stroke-opacity:1">
              <g
                 id="g3938"
                 style="fill:#ffffff;stroke:#f3e3d8;stroke-width:27.3868;stroke-miterlimit:4;stroke-dasharray:none;stroke-opacity:1" />
              <g
                 clip-path="url(#id0)"
                 id="g3940"
                 style="fill:#ffffff;stroke:#f3e3d8;stroke-width:27.3868;stroke-miterlimit:4;stroke-dasharray:none;stroke-opacity:1" />
            </g>
            <g
               id="g3948"
               style="fill:#ffffff;stroke:#f3e3d8;stroke-width:27.3868;stroke-miterlimit:4;stroke-dasharray:none;stroke-opacity:1">
              <g
                 id="g3944"
                 style="fill:#ffffff;stroke:#f3e3d8;stroke-width:27.3868;stroke-miterlimit:4;stroke-dasharray:none;stroke-opacity:1" />
              <g
                 clip-path="url(#id1)"
                 id="g3946"
                 style="fill:#ffffff;stroke:#f3e3d8;stroke-width:27.3868;stroke-miterlimit:4;stroke-dasharray:none;stroke-opacity:1" />
            </g>
            <g
               id="g3954"
               style="fill:#ffffff;stroke:#f3e3d8;stroke-width:27.3868;stroke-miterlimit:4;stroke-dasharray:none;stroke-opacity:1">
              <g
                 id="g3950"
                 style="fill:#ffffff;stroke:#f3e3d8;stroke-width:27.3868;stroke-miterlimit:4;stroke-dasharray:none;stroke-opacity:1" />
              <g
                 clip-path="url(#id2)"
                 id="g3952"
                 style="fill:#ffffff;stroke:#f3e3d8;stroke-width:27.3868;stroke-miterlimit:4;stroke-dasharray:none;stroke-opacity:1" />
            </g>
            <g
               id="g3960"
               style="fill:#ffffff;stroke:#f3e3d8;stroke-width:27.3868;stroke-miterlimit:4;stroke-dasharray:none;stroke-opacity:1">
              <g
                 id="g3956"
                 style="fill:#ffffff;stroke:#f3e3d8;stroke-width:27.3868;stroke-miterlimit:4;stroke-dasharray:none;stroke-opacity:1" />
              <g
                 clip-path="url(#id3)"
                 id="g3958"
                 style="fill:#ffffff;stroke:#f3e3d8;stroke-width:27.3868;stroke-miterlimit:4;stroke-dasharray:none;stroke-opacity:1" />
            </g>
            <g
               id="g3966"
               style="fill:#ffffff;stroke:#f3e3d8;stroke-width:27.3868;stroke-miterlimit:4;stroke-dasharray:none;stroke-opacity:1">
              <g
                 id="g3962"
                 style="fill:#ffffff;stroke:#f3e3d8;stroke-width:27.3868;stroke-miterlimit:4;stroke-dasharray:none;stroke-opacity:1" />
              <g
                 clip-path="url(#id4)"
                 id="g3964"
                 style="fill:#ffffff;stroke:#f3e3d8;stroke-width:27.3868;stroke-miterlimit:4;stroke-dasharray:none;stroke-opacity:1" />
            </g>
            <g
               id="g3972"
               style="fill:#ffffff;stroke:#f3e3d8;stroke-width:27.3868;stroke-miterlimit:4;stroke-dasharray:none;stroke-opacity:1">
              <g
                 id="g3968"
                 style="fill:#ffffff;stroke:#f3e3d8;stroke-width:27.3868;stroke-miterlimit:4;stroke-dasharray:none;stroke-opacity:1" />
              <g
                 clip-path="url(#id5)"
                 id="g3970"
                 style="fill:#ffffff;stroke:#f3e3d8;stroke-width:27.3868;stroke-miterlimit:4;stroke-dasharray:none;stroke-opacity:1" />
            </g>
            <g
               id="g3978"
               style="fill:#ffffff;stroke:#f3e3d8;stroke-width:27.3868;stroke-miterlimit:4;stroke-dasharray:none;stroke-opacity:1">
              <g
                 id="g3974"
                 style="fill:#ffffff;stroke:#f3e3d8;stroke-width:27.3868;stroke-miterlimit:4;stroke-dasharray:none;stroke-opacity:1" />
              <g
                 clip-path="url(#id6)"
                 id="g3976"
                 style="fill:#ffffff;stroke:#f3e3d8;stroke-width:27.3868;stroke-miterlimit:4;stroke-dasharray:none;stroke-opacity:1" />
            </g>
            <g
               id="g3984"
               style="fill:#ffffff;stroke:#f3e3d8;stroke-width:27.3868;stroke-miterlimit:4;stroke-dasharray:none;stroke-opacity:1">
              <g
                 id="g3980"
                 style="fill:#ffffff;stroke:#f3e3d8;stroke-width:27.3868;stroke-miterlimit:4;stroke-dasharray:none;stroke-opacity:1" />
              <g
                 clip-path="url(#id7)"
                 id="g3982"
                 style="fill:#ffffff;stroke:#f3e3d8;stroke-width:27.3868;stroke-miterlimit:4;stroke-dasharray:none;stroke-opacity:1" />
            </g>
            <g
               id="g3990"
               style="fill:#ffffff;stroke:#f3e3d8;stroke-width:27.3868;stroke-miterlimit:4;stroke-dasharray:none;stroke-opacity:1">
              <g
                 id="g3986"
                 style="fill:#ffffff;stroke:#f3e3d8;stroke-width:27.3868;stroke-miterlimit:4;stroke-dasharray:none;stroke-opacity:1" />
              <g
                 clip-path="url(#id8)"
                 id="g3988"
                 style="fill:#ffffff;stroke:#f3e3d8;stroke-width:27.3868;stroke-miterlimit:4;stroke-dasharray:none;stroke-opacity:1" />
            </g>
            <g
               id="g3996"
               style="fill:#ffffff;stroke:#f3e3d8;stroke-width:27.3868;stroke-miterlimit:4;stroke-dasharray:none;stroke-opacity:1">
              <g
                 id="g3992"
                 style="fill:#ffffff;stroke:#f3e3d8;stroke-width:27.3868;stroke-miterlimit:4;stroke-dasharray:none;stroke-opacity:1" />
              <g
                 clip-path="url(#id9)"
                 id="g3994"
                 style="fill:#ffffff;stroke:#f3e3d8;stroke-width:27.3868;stroke-miterlimit:4;stroke-dasharray:none;stroke-opacity:1" />
            </g>
            <g
               id="g4002"
               style="fill:#ffffff;stroke:#f3e3d8;stroke-width:27.3868;stroke-miterlimit:4;stroke-dasharray:none;stroke-opacity:1">
              <g
                 id="g3998"
                 style="fill:#ffffff;stroke:#f3e3d8;stroke-width:27.3868;stroke-miterlimit:4;stroke-dasharray:none;stroke-opacity:1" />
              <g
                 clip-path="url(#id10)"
                 id="g4000"
                 style="fill:#ffffff;stroke:#f3e3d8;stroke-width:27.3868;stroke-miterlimit:4;stroke-dasharray:none;stroke-opacity:1" />
            </g>
            <g
               id="g4008"
               style="fill:#ffffff;stroke:#f3e3d8;stroke-width:27.3868;stroke-miterlimit:4;stroke-dasharray:none;stroke-opacity:1">
              <g
                 id="g4004"
                 style="fill:#ffffff;stroke:#f3e3d8;stroke-width:27.3868;stroke-miterlimit:4;stroke-dasharray:none;stroke-opacity:1" />
              <g
                 clip-path="url(#id11)"
                 id="g4006"
                 style="fill:#ffffff;stroke:#f3e3d8;stroke-width:27.3868;stroke-miterlimit:4;stroke-dasharray:none;stroke-opacity:1" />
            </g>
            <g
               id="g4014"
               style="fill:#ffffff;stroke:#f3e3d8;stroke-width:27.3868;stroke-miterlimit:4;stroke-dasharray:none;stroke-opacity:1">
              <g
                 id="g4010"
                 style="fill:#ffffff;stroke:#f3e3d8;stroke-width:27.3868;stroke-miterlimit:4;stroke-dasharray:none;stroke-opacity:1" />
              <g
                 clip-path="url(#id12)"
                 id="g4012"
                 style="fill:#ffffff;stroke:#f3e3d8;stroke-width:27.3868;stroke-miterlimit:4;stroke-dasharray:none;stroke-opacity:1" />
            </g>
            <g
               id="g4020"
               style="fill:#ffffff;stroke:#f3e3d8;stroke-width:27.3868;stroke-miterlimit:4;stroke-dasharray:none;stroke-opacity:1">
              <g
                 id="g4016"
                 style="fill:#ffffff;stroke:#f3e3d8;stroke-width:27.3868;stroke-miterlimit:4;stroke-dasharray:none;stroke-opacity:1" />
              <g
                 clip-path="url(#id13)"
                 id="g4018"
                 style="fill:#ffffff;stroke:#f3e3d8;stroke-width:27.3868;stroke-miterlimit:4;stroke-dasharray:none;stroke-opacity:1" />
            </g>
            <g
               id="g4026"
               style="fill:#ffffff;stroke:#f3e3d8;stroke-width:27.3868;stroke-miterlimit:4;stroke-dasharray:none;stroke-opacity:1">
              <g
                 id="g4022"
                 style="fill:#ffffff;stroke:#f3e3d8;stroke-width:27.3868;stroke-miterlimit:4;stroke-dasharray:none;stroke-opacity:1" />
              <g
                 clip-path="url(#id14)"
                 id="g4024"
                 style="fill:#ffffff;stroke:#f3e3d8;stroke-width:27.3868;stroke-miterlimit:4;stroke-dasharray:none;stroke-opacity:1" />
            </g>
            <g
               id="g4032"
               style="fill:#ffffff;stroke:#f3e3d8;stroke-width:27.3868;stroke-miterlimit:4;stroke-dasharray:none;stroke-opacity:1">
              <g
                 id="g4028"
                 style="fill:#ffffff;stroke:#f3e3d8;stroke-width:27.3868;stroke-miterlimit:4;stroke-dasharray:none;stroke-opacity:1" />
              <g
                 clip-path="url(#id15)"
                 id="g4030"
                 style="fill:#ffffff;stroke:#f3e3d8;stroke-width:27.3868;stroke-miterlimit:4;stroke-dasharray:none;stroke-opacity:1" />
            </g>
            <polyline
               id="1"
               fill="none"
               stroke="#000000"
               stroke-width="2.36229"
               points="794,2079 794,2078 794,1783 794,1488 794,1194 794,899 794,898 "
               style="fill:#ffffff;stroke:#f3e3d8;stroke-width:27.1239;stroke-miterlimit:4;stroke-dasharray:none;stroke-opacity:1"
               transform="matrix(1,0,0,1.0006284,0,-22.085607)" />
            <polyline
               id="2"
               fill="none"
               stroke="#000000"
               stroke-width="2.36229"
               points="1089,2079 1089,2078 1089,1783 1089,1488 1089,1194 1089,899 1089,898 "
               style="fill:#ffffff;stroke:#f3e3d8;stroke-width:28.2299;stroke-miterlimit:4;stroke-dasharray:none;stroke-opacity:1"
               transform="matrix(1,0,0,0.94115892,0,100.06717)" />
            <polyline
               id="3"
               fill="none"
               stroke="#000000"
               stroke-width="2.36229"
               points="1383,2079 1383,2078 1383,1783 1383,1488 1383,1194 1383,899 1383,898 "
               style="fill:#ffffff;stroke:#f3e3d8;stroke-width:28.8376;stroke-miterlimit:4;stroke-dasharray:none;stroke-opacity:1"
               transform="matrix(1,0,0,0.90190986,0,88.084947)" />
            <polyline
               id="6"
               fill="none"
               stroke="#000000"
               stroke-width="2.36229"
               points="498,1783 499,1783 794,1783 1089,1783 1383,1783 1678,1783 1679,1783 "
               style="fill:#ffffff;stroke:#f3e3d8;stroke-width:27.9414;stroke-miterlimit:4;stroke-dasharray:none;stroke-opacity:1"
               transform="matrix(0.96069695,0,0,1,45.523052,0)" />
            <polyline
               id="7"
               fill="none"
               stroke="#000000"
               stroke-width="2.36229"
               points="498,1488 499,1488 794,1488 1089,1488 1383,1488 1678,1488 1679,1488 "
               style="fill:#ffffff;stroke:#f3e3d8;stroke-width:28.48;stroke-miterlimit:4;stroke-dasharray:none;stroke-opacity:1"
               transform="matrix(0.924704,0,0,1,37.497407,0)" />
            <polyline
               id="8"
               fill="none"
               stroke="#000000"
               stroke-width="2.36229"
               points="498,1194 499,1194 794,1194 1089,1194 1383,1194 1678,1194 1679,1194 "
               style="fill:#ffffff;stroke:#f3e3d8;stroke-width:27.3868;stroke-miterlimit:4;stroke-dasharray:none;stroke-opacity:1" />
          </g>
        </g>
      </g>
    </g>
    <path
       style="fill:#b57d58;fill-opacity:1;stroke:none;stroke-width:0.316887px;stroke-linecap:butt;stroke-linejoin:miter;stroke-opacity:1"
       d="m 26.934643,27.772795 c -0.639097,-0.252899 -0.818661,-1.264934 -0.586715,-1.880718 0.254152,-0.674736 1.140668,-1.390471 1.877491,-1.216936 0.741151,0.174554 1.282544,1.229742 1.056085,1.917597 -0.262821,0.798303 -1.529359,1.503555 -2.346861,1.180057 z"
       id="path1029"
       sodipodi:nodetypes="sssss" />
  </g>
  <g
     inkscape:groupmode="layer"
     id="layer2"
     inkscape:label="Drawings"
     style="display:none">
    <path
       style="fill:#814f2b;fill-opacity:1;stroke:none;stroke-width:0.197153px;stroke-linecap:butt;stroke-linejoin:miter;stroke-opacity:1"
       d="m 5.054146,27.148258 1.1105545,0.09452 c -0.268132,-1.97393 0.154926,-3.671384 0.8270089,-5.269227 0.999815,0.341038 1.8283325,1.538564 2.7409431,2.315624 C 9.3639092,23.196866 8.9035978,22.320659 7.9532539,21.679996 8.5418402,21.192538 9.5996665,21.313052 10.878651,21.79633 10.495393,21.035879 9.0159713,19.808968 7.2728428,20.814774 6.6088876,19.667871 5.2509455,19.780861 4.2153227,19.988725 c 0.851916,0.320478 1.78624,0.515709 1.9081512,1.000854 -0.2856991,-0.27926 -1.7562428,0.326177 -2.2389546,0.983968 1.2199297,-0.455742 2.2478571,-0.502396 2.8000154,-0.21266 -1.1736054,1.969079 -1.3864925,3.65072 -1.6303887,5.387371 z"
       id="path3420"
       sodipodi:nodetypes="cccccccccccc" />
    <path
       style="fill:#814f2b;fill-opacity:1;stroke:none;stroke-width:0.264583px;stroke-linecap:butt;stroke-linejoin:miter;stroke-opacity:1"
       d="m 16.255733,9.1868964 c -0.570272,0.2281084 -1.615666,0.020069 -2.242262,0.08969 -0.396366,0.044041 -0.694974,0.3945364 -0.986594,0.6278324 -0.661854,0.5294832 -1.03144,1.0009672 -1.03144,1.8834992 0,0.164433 -0.052,0.337303 0,0.493298 0.123393,0.37018 0.582378,0.666185 0.941749,0.717523 0.780799,0.111543 1.586585,0.217011 2.376797,0.179382 0.443346,-0.02111 0.87119,-0.138362 1.300511,-0.224227 0.591646,-0.118329 1.464786,-0.130287 2.062881,-0.04484 0.733685,0.104812 1.840811,0.700628 2.601023,0.493297 C 22.27042,13.1318 23.116393,10.978732 22.803135,10.03896 22.692519,9.7071128 22.464564,9.4761618 22.220147,9.2317461 21.281829,8.2934278 19.20487,8.0749271 17.982274,8.1666699 17.312666,8.2169168 16.883527,8.9357787 16.255733,9.1868964 Z"
       id="path3422"
       sodipodi:nodetypes="sssscssscsssss" />
    <circle
       style="opacity:0.996;fill:#814f2b;fill-opacity:1;stroke:none;stroke-width:0.329324;stroke-miterlimit:4;stroke-dasharray:none;stroke-dashoffset:0;stroke-opacity:1"
       id="path3426"
       cx="7.8808208"
       cy="26.762747"
       r="0.61914885" />
    <path
       style="display:inline;fill:#814f2b;fill-opacity:1;stroke:none;stroke-width:0.276548px;stroke-linecap:butt;stroke-linejoin:miter;stroke-opacity:1"
       d="m 29.184011,6.162331 c -0.910407,0.1288829 -0.780425,0.9641565 0.265153,1.0771922 l -0.182293,1.4252095 0.827179,0.021997 -0.155516,-1.424889 c 1.571138,0.4178395 1.221869,-0.9957623 0.422113,-1.29837 0.604847,-0.4086708 0.385331,-1.2618915 -0.309603,-1.3717089 -0.755686,-0.119417 -1.855676,0.5996687 -0.867021,1.5705769 z"
       id="path3466-1-8-6-5-2-1-8"
       sodipodi:nodetypes="ccccccscc" />
    <path
       style="display:inline;fill:#814f2b;fill-opacity:1;stroke:none;stroke-width:0.276548px;stroke-linecap:butt;stroke-linejoin:miter;stroke-opacity:1"
       d="m 25.568151,6.3329013 -0.182294,1.4252094 0.480594,0.049719 0.0663,-1.5080682 1.018678,0.1326076 L 26.268061,3.273414 24.479324,5.98671 Z"
       id="path3603-0-2"
       sodipodi:nodetypes="cccccccc" />
    <path
       style="display:inline;fill:#814f2b;fill-opacity:1;stroke:none;stroke-width:0.276548px;stroke-linecap:butt;stroke-linejoin:miter;stroke-opacity:1"
       d="m 27.050656,10.229586 -0.182294,1.425209 0.480594,0.04972 0.03856,-1.369434 c 1.844737,0.630763 0.740464,-2.6571759 0.265008,-2.7532593 -1.439537,0.7143229 -1.731901,2.4925623 -0.601877,2.6477683 z"
       id="path3603-8-7"
       sodipodi:nodetypes="cccccc" />
    <g
       id="g187"
       transform="translate(-2.4216421,0.67267836)">
      <path
         style="fill:#814f2b;fill-opacity:1;stroke:none;stroke-width:0.264583px;stroke-linecap:butt;stroke-linejoin:miter;stroke-opacity:1"
         d="m 17.44894,22.415104 2.790511,0.221973 c 0.991675,-1.0695 1.367,-2.818768 1.300125,-5.168789 1.319223,1.534709 2.430826,3.277039 3.075905,5.485893 l 0.72934,0.126841 c -0.597664,-2.560572 -2.190355,-4.58536 -3.868665,-6.564045 -2.011366,1.803156 -3.282112,3.757301 -4.027216,5.898127 z"
         id="path3706"
         sodipodi:nodetypes="ccccccc" />
      <path
         id="path3708"
         style="opacity:0.996;fill:#814f2b;fill-opacity:1;stroke:none;stroke-width:0.165;stroke-miterlimit:4;stroke-dasharray:none;stroke-dashoffset:0;stroke-opacity:1"
         d="m 29.532617,21.319368 c -0.611089,0.01113 -1.100663,0.509672 -1.100708,1.120862 -1.37e-4,0.619377 0.502002,1.121516 1.121379,1.121379 0.619175,-1.49e-4 1.120998,-0.502204 1.120861,-1.121379 -1.48e-4,-0.618973 -0.501888,-1.120713 -1.120861,-1.120862 -0.0069,-6.3e-5 -0.01378,-6.3e-5 -0.02067,0 z m 0.473052,0.410527 c 0.225382,0.1471 0.374361,0.401497 0.374441,0.690698 1.59e-4,0.455364 -0.368875,0.824629 -0.824239,0.824756 -0.127657,-3.6e-5 -0.24853,-0.02908 -0.356385,-0.0809 0.438362,-0.842336 -0.145016,-1.367931 0.806183,-1.43455 z"
         sodipodi:nodetypes="cccccccccscc" />
      <path
         style="fill:#814f2b;fill-opacity:1;stroke:none;stroke-width:0.264583px;stroke-linecap:butt;stroke-linejoin:miter;stroke-opacity:1"
         d="m 24.059462,19.530094 c 0.522183,0.528286 1.007365,1.524982 1.233244,2.23105 0.431691,-1.893862 1.367926,-3.658073 3.139164,-4.843284 1.310717,1.36346 1.642021,2.287166 1.861079,4.226662 l 0.60541,0.739952 c -0.37016,-2.638575 -0.589815,-3.96828 -2.870094,-6.143796 -1.423201,1.036862 -3.270004,2.139598 -3.968803,3.789416 z"
         id="path134"
         sodipodi:nodetypes="ccccccc" />
      <circle
         style="opacity:0.996;fill:#814f2b;fill-opacity:1;stroke:none;stroke-width:0.421;stroke-miterlimit:4;stroke-dasharray:none;stroke-dashoffset:0;stroke-opacity:0.31"
         id="path136"
         cx="30.763823"
         cy="23.420418"
         r="0.31391656" />
      <circle
         style="opacity:0.996;fill:#814f2b;fill-opacity:1;stroke:none;stroke-width:0.290433;stroke-miterlimit:4;stroke-dasharray:none;stroke-dashoffset:0;stroke-opacity:0.31"
         id="path138"
         cx="31.077457"
         cy="22.653357"
         r="0.22042732" />
      <path
         id="path136-3"
         style="display:inline;opacity:0.996;fill:#814f2b;fill-opacity:1;stroke:none;stroke-width:0.59391;stroke-miterlimit:4;stroke-dasharray:none;stroke-dashoffset:0;stroke-opacity:0.31"
         d="m 31.708446,23.083184 a 0.44284656,0.44284656 0 0 0 -0.438216,0.442867 0.44284656,0.44284656 0 0 0 0.442865,0.442867 0.44284656,0.44284656 0 0 0 0.442867,-0.442867 0.44284656,0.44284656 0 0 0 -0.442867,-0.442867 0.44284656,0.44284656 0 0 0 -0.0046,0 z m 0.0046,0.206189 a 0.25185603,0.25185603 0 0 1 0.0047,0 0.25185603,0.25185603 0 0 1 0.251664,0.252181 0.25185603,0.25185603 0 0 1 -0.251664,0.251664 0.25185603,0.25185603 0 0 1 -0.251664,-0.251664 0.25185603,0.25185603 0 0 1 0.247013,-0.252181 z" />
    </g>
    <path
       style="fill:#efc9af;fill-opacity:1;stroke:none;stroke-width:0.264583px;stroke-linecap:butt;stroke-linejoin:miter;stroke-opacity:1"
       d="m 13.697222,11.454847 c 0.521327,0.412933 1.197809,0.64805 1.83368,-0.42809 0.305764,0.517315 1.303072,0.851132 1.793809,-0.02242 0.689331,0.827148 1.332902,0.882738 1.991299,0.28403 -0.269469,0.639035 -1.336128,0.976403 -1.949641,0.193644 -0.57297,0.699579 -1.495202,0.742568 -1.813744,-0.04644 -0.504223,0.862286 -1.393939,1.030598 -1.855403,0.01928 z"
       id="path283"
       sodipodi:nodetypes="cccccccc" />
    <path
       style="display:inline;fill:#efc9af;fill-opacity:1;stroke:none;stroke-width:0.231162px;stroke-linecap:butt;stroke-linejoin:miter;stroke-opacity:1"
       d="m 21.448326,9.7904143 c -0.443935,0.3748837 -1.028233,0.5987397 -1.613003,-0.3235791 -0.252833,0.4601277 -1.114589,0.7789668 -1.567068,0.029582 -0.579293,0.7412028 -1.139771,0.8073848 -1.731128,0.3026032 0.252828,0.5506556 1.193539,0.8160316 1.707842,0.1156699 0.519522,0.5952077 1.326042,0.6074747 1.582588,-0.090261 0.463947,0.7391777 1.245509,0.8617747 1.620769,-0.034011 z"
       id="path283-2"
       sodipodi:nodetypes="cccccccc" />
  </g>
  <g
     inkscape:groupmode="layer"
     id="layer3"
     inkscape:label="Path"
     style="display:none"
     sodipodi:insensitive="true">
    <path
       style="display:inline;fill:none;fill-opacity:1;stroke:#b1251c;stroke-width:0.565;stroke-linecap:butt;stroke-linejoin:miter;stroke-miterlimit:4;stroke-dasharray:2.26, 2.26;stroke-dashoffset:0;stroke-opacity:1"
       d="m 11.730193,7.9724356 c 1.048325,-1.2289152 3.755802,-3.0004748 7.191718,-2.8565727 3.569458,0.1259051 7.626419,5.6379061 5.756444,8.4497981 -2.858826,3.397844 -7.002653,2.361859 -10.661055,4.229293 -0.720726,0.38156 -1.798951,0.893811 -2.283146,1.585518 -1.241768,1.773954 -0.71153,5.745661 1.851402,6.477927 1.660659,0.474474 4.563196,-0.775695 7.128071,-0.349747 3.030417,0.503261 7.596966,1.359972 7.596966,1.359972"
       id="path861"
       sodipodi:nodetypes="ccccsssc" />
    <g
       id="g3406"
       transform="translate(-0.21746535,1.4721981)"
       style="display:inline">
      <path
         style="fill:#b1251c;fill-opacity:1;stroke:none;stroke-width:0.264583px;stroke-linecap:butt;stroke-linejoin:miter;stroke-opacity:1"
         d="M 5.4541821,8.5617978 7.198252,7.2933832 c 0.181079,1.975919 1.7752309,3.4355638 3.646692,4.5662918 L 8.9106115,12.620724 C 8.6020927,10.82672 7.1918191,9.5992099 5.4541821,8.5617978 Z"
         id="path864"
         sodipodi:nodetypes="ccccc" />
      <path
         style="fill:#b1251c;fill-opacity:1;stroke:none;stroke-width:0.264583px;stroke-linecap:butt;stroke-linejoin:miter;stroke-opacity:1"
         d="M 6.3737828,12.493883 C 7.7504318,10.639332 9.2251912,9.6024697 11.193758,9.1008738 L 10.55955,7.5153556 C 9.0038563,9.2537665 7.2105584,10.279366 5.2322096,10.749813 Z"
         id="path866"
         sodipodi:nodetypes="ccccc" />
    </g>
  </g>
  <g
     inkscape:groupmode="layer"
     id="g143"
     inkscape:label="Path 2"
     style="display:inline">
    <path
       style="display:inline;fill:none;fill-opacity:1;stroke:#d31408;stroke-width:1.17921;stroke-linecap:butt;stroke-linejoin:miter;stroke-miterlimit:4;stroke-dasharray:3.53764, 3.53764;stroke-dashoffset:0;stroke-opacity:1"
       d="m 14.106754,9.1093915 c 6.701854,-5.2286368 17.367693,-0.9294213 13.062504,5.0232765 -3.783766,4.694133 -9.01422,0.71859 -11.333848,4.07508 -2.244004,3.247058 -1.675534,6.607967 0.861666,7.527652 4.900316,-0.116368 6.521781,-0.234091 12.76064,0.888308"
       id="path135"
       sodipodi:nodetypes="ccscc" />
    <g
       id="g141"
       transform="matrix(1.322616,0,0,1.3185633,-2.3321494,-0.7769037)"
       style="display:inline;fill:#de2418;fill-opacity:1">
      <path
         style="fill:#d31408;fill-opacity:1;stroke:none;stroke-width:0.264583px;stroke-linecap:butt;stroke-linejoin:miter;stroke-opacity:1"
         d="M 5.4541821,8.5617978 7.198252,7.2933832 c 0.181079,1.975919 1.7752309,3.4355638 3.646692,4.5662918 L 8.9106115,12.620724 C 8.6020927,10.82672 7.1918191,9.5992099 5.4541821,8.5617978 Z"
         id="path137"
         sodipodi:nodetypes="ccccc" />
      <path
         style="fill:#d31408;fill-opacity:1;stroke:none;stroke-width:0.264583px;stroke-linecap:butt;stroke-linejoin:miter;stroke-opacity:1"
         d="M 6.3737828,12.493883 C 7.7504318,10.639332 9.2251912,9.6024697 11.193758,9.1008738 L 10.55955,7.5153556 C 9.0038563,9.2537665 7.2105584,10.279366 5.2322096,10.749813 Z"
         id="path139"
         sodipodi:nodetypes="ccccc" />
    </g>
  </g>
</svg>
