<?xml version="1.0" encoding="UTF-8"?>
<!DOCTYPE svg PUBLIC "-//W3C//DTD SVG 1.1//EN" "http://www.w3.org/Graphics/SVG/1.1/DTD/svg11.dtd">
<!-- Creator: CorelDRAW X6 -->
<svg xmlns="http://www.w3.org/2000/svg" xml:space="preserve" width="128px" height="128px" version="1.1" shape-rendering="geometricPrecision" text-rendering="geometricPrecision" image-rendering="optimizeQuality" fill-rule="evenodd" clip-rule="evenodd"
viewBox="0 0 128 128"
 xmlns:xlink="http://www.w3.org/1999/xlink">
 <defs>
   <clipPath id="id0">
    <path d="M102 27c2,12 -9,1 0,0l0 0zm-88 59c0,12 5,16 3,24 0,1 0,3 1,4 2,2 32,2 35,1 5,-2 12,-2 18,-3 0,-1 0,-2 0,-3 0,-11 -1,-6 4,-10 3,-3 15,-7 16,0 1,5 0,8 1,10 7,-1 9,3 19,3 4,0 3,-14 4,-17 2,-5 -1,-18 -4,-22 -2,-4 -2,-19 0,-22 4,-5 2,-17 2,-23 0,-10 -4,-10 -5,-12 -15,-2 -15,11 -18,9 -4,-2 -15,-2 -15,-2 -10,-9 3,-9 -20,-9 -13,0 -13,7 -19,3 -4,-3 -24,-7 -20,1 1,3 -2,21 0,24 4,4 1,21 5,21 10,1 -6,19 -6,24zm20 -54c-7,-1 -5,0 -7,0 -14,1 -2,-8 1,-8 0,0 2,2 3,2 6,0 3,6 3,6z"/>
   </clipPath>
 </defs>
 <g id="Рамка" visibility="hidden">
  <metadata id="CorelCorpID_0Corel-Layer"/>
  <rect fill="none" x="7" y="7" width="115" height="115"/>
 </g>
 <g id="Слой_x0020_1">
  <metadata id="CorelCorpID_1Corel-Layer"/>
  <path fill="#D69C75" d="M102 27c2,12 -9,1 0,0l0 0zm-88 59c0,12 5,16 3,24 0,1 0,3 1,4 2,2 32,2 35,1 5,-2 12,-2 18,-3 0,-1 0,-2 0,-3 0,-11 -1,-6 4,-10 3,-3 15,-7 16,0 1,5 0,8 1,10 7,-1 9,3 19,3 4,0 3,-14 4,-17 2,-5 -1,-18 -4,-22 -2,-4 -2,-19 0,-22 4,-5 2,-17 2,-23 0,-10 -4,-10 -5,-12 -15,-2 -15,11 -18,9 -4,-2 -15,-2 -15,-2 -10,-9 3,-9 -20,-9 -13,0 -13,7 -19,3 -4,-3 -24,-7 -20,1 1,3 -2,21 0,24 4,4 1,21 5,21 10,1 -6,19 -6,24zm20 -54c-7,-1 -5,0 -7,0 -14,1 -2,-8 1,-8 0,0 2,2 3,2 6,0 3,6 3,6z"/>
  <g clip-path="url(#id0)">
   <g id="_246006208">
    <g>
     <line id="1" fill="none" stroke="#F0D5C3" stroke-width="1.66957" x1="21" y1="102" x2="110" y2= "102" />
     <g>
      <path fill="none" stroke="#F0D5C3" stroke-width="1.66957" d="M21 82c30,0 59,0 89,0"/>
      <path fill="none" stroke="#F0D5C3" stroke-width="1.66957" d="M21 63c30,0 59,0 89,0"/>
      <path fill="none" stroke="#F0D5C3" stroke-width="1.66957" d="M21 44c30,0 59,0 89,0"/>
     </g>
     <line fill="none" stroke="#F0D5C3" stroke-width="1.66957" x1="21" y1="25" x2="110" y2= "25" />
     <line fill="none" stroke="#F0D5C3" stroke-width="1.66957" x1="27" y1="19" x2="27" y2= "108" />
     <g>
      <path fill="none" stroke="#F0D5C3" stroke-width="1.66957" d="M46 19c0,30 0,59 0,89"/>
      <path fill="none" stroke="#F0D5C3" stroke-width="1.66957" d="M65 19c0,30 0,59 0,89"/>
      <path fill="none" stroke="#F0D5C3" stroke-width="1.66957" d="M85 19c0,30 0,59 0,89"/>
     </g>
     <line fill="none" stroke="#F0D5C3" stroke-width="1.66957" x1="104" y1="19" x2="104" y2= "108" />
    </g>
   </g>
  </g>
  <path fill="none" stroke="#96613E" stroke-width="2.78261" d="M102 27c2,12 -9,1 0,0l0 0zm-88 59c0,12 5,16 3,24 0,1 0,3 1,4 2,2 32,2 35,1 5,-2 12,-2 18,-3 0,-1 0,-2 0,-3 0,-11 -1,-6 4,-10 3,-3 15,-7 16,0 1,5 0,8 1,10 7,-1 9,3 19,3 4,0 3,-14 4,-17 2,-5 -1,-18 -4,-22 -2,-4 -2,-19 0,-22 4,-5 2,-17 2,-23 0,-10 -4,-10 -5,-12 -15,-2 -15,11 -18,9 -4,-2 -15,-2 -15,-2 -10,-9 3,-9 -20,-9 -13,0 -13,7 -19,3 -4,-3 -24,-7 -20,1 1,3 -2,21 0,24 4,4 1,21 5,21 10,1 -6,19 -6,24zm20 -54c-7,-1 -5,0 -7,0 -14,1 -2,-8 1,-8 0,0 2,2 3,2 6,0 3,6 3,6z"/>
 </g>
 <g id="Слой_x0020_2">
  <metadata id="CorelCorpID_2Corel-Layer"/>
  <g id="_246011744">
   <line fill="none" stroke="black" stroke-width="1.66957" x1="40" y1="30" x2="52" y2= "41" />
   <line fill="none" stroke="black" stroke-width="1.66957" x1="55" y1="32" x2="40" y2= "43" />
  </g>
  <path fill="none" stroke="black" stroke-width="1.66957" stroke-dasharray="3.339130 5.008696" d="M60 37c6,0 20,3 21,11 2,12 -2,14 -12,21 -7,5 -36,6 -24,26 3,5 35,9 36,-11 0,-4 2,-11 -7,-10 0,0 -13,17 16,17 2,0 4,0 6,0"/>
  <path fill="none" stroke="black" stroke-width="1.66957" d="M105 95c-5,-1 -9,2 -9,-7 0,-2 12,-12 13,3 0,1 -3,3 -3,3z"/>
 </g>
</svg>
